<svg xmlns="http://www.w3.org/2000/svg" viewBox="0 0 800 800" width="100%" height="100%" role="img" aria-label="Pythh Signal Art — layered abstract digital composition">
<defs>
<linearGradient id="void" x1="0" y1="0" x2="0" y2="1"><stop offset="0%" stop-color="#050508"/><stop offset="72%" stop-color="#0a0a0c"/><stop offset="100%" stop-color="#050508"/></linearGradient>
<linearGradient id="floorGlow" x1="0" y1="0" x2="0" y2="1"><stop offset="0%" stop-color="#fbbf24" stop-opacity="0"/><stop offset="100%" stop-color="#fbbf24" stop-opacity="0.09"/></linearGradient>
<filter id="neonBloom" x="-20%" y="-20%" width="140%" height="140%"><feGaussianBlur in="SourceGraphic" stdDeviation="2.2" result="blur"/><feMerge><feMergeNode in="blur"/><feMergeNode in="SourceGraphic"/></feMerge></filter>
</defs>
<g id="background">
<rect width="800" height="800" fill="url(#void)"/>
<line x1="100" y1="800" x2="107" y2="100" stroke="#a78bfa" stroke-opacity="0.13" stroke-width="2" stroke-linecap="round"/>
<line x1="230" y1="800" x2="227" y2="100" stroke="#a78bfa" stroke-opacity="0.12" stroke-width="2" stroke-linecap="round"/>
<line x1="360" y1="800" x2="374" y2="100" stroke="#a78bfa" stroke-opacity="0.14" stroke-width="2" stroke-linecap="round"/>
<line x1="490" y1="800" x2="479" y2="100" stroke="#a78bfa" stroke-opacity="0.13" stroke-width="2" stroke-linecap="round"/>
<line x1="620" y1="800" x2="636" y2="100" stroke="#a78bfa" stroke-opacity="0.15" stroke-width="2" stroke-linecap="round"/>
<rect x="0" y="502" width="800" height="298" fill="url(#floorGlow)"/>
<line x1="48" y1="502" x2="752" y2="502" stroke="rgba(255,255,255,0.06)" stroke-width="1"/>
<circle cx="400" cy="542" r="352" fill="none" stroke="rgba(255,255,255,0.03)" stroke-width="1"/>
</g>
<g id="midground">
<path d="M 183.0 717.4 A 292 292 0 1 1 617.0 717.4" fill="none" stroke="#a78bfa" stroke-opacity="0.22" stroke-width="1.5" stroke-linecap="round"/>
<path d="M 178.3 650.0 A 256 256 0 1 1 621.7 650.0" fill="none" stroke="rgba(255,255,255,0.06)" stroke-width="1" stroke-linecap="round"/>
<line x1="720" y1="494" x2="720" y2="426.0" stroke="#a78bfa" stroke-opacity="0.45" stroke-width="1.5" stroke-linecap="round"/>
<line x1="706" y1="494" x2="706" y2="430.9" stroke="rgba(255,255,255,0.06)" stroke-opacity="0.2" stroke-width="1.5" stroke-linecap="round"/>
<line x1="692" y1="494" x2="692" y2="455.7" stroke="rgba(255,255,255,0.06)" stroke-opacity="0.2" stroke-width="1.5" stroke-linecap="round"/>
<line x1="678" y1="494" x2="678" y2="460.6" stroke="rgba(255,255,255,0.06)" stroke-opacity="0.2" stroke-width="1.5" stroke-linecap="round"/>
<line x1="664" y1="494" x2="664" y2="467.8" stroke="rgba(255,255,255,0.06)" stroke-opacity="0.2" stroke-width="1.5" stroke-linecap="round"/>
<line x1="72" y1="530" x2="122.9" y2="510.8" stroke="#fbbf24" stroke-opacity="0.38" stroke-width="1" stroke-linecap="round"/>
<line x1="82" y1="536" x2="117.5" y2="522.6" stroke="#fbbf24" stroke-opacity="0.38" stroke-width="1" stroke-linecap="round"/>
<line x1="92" y1="542" x2="145.9" y2="521.7" stroke="#fbbf24" stroke-opacity="0.38" stroke-width="1" stroke-linecap="round"/>
<line x1="102" y1="548" x2="147.1" y2="531.0" stroke="#fbbf24" stroke-opacity="0.38" stroke-width="1" stroke-linecap="round"/>
<line x1="112" y1="554" x2="147.9" y2="540.5" stroke="#fbbf24" stroke-opacity="0.38" stroke-width="1" stroke-linecap="round"/>
<line x1="122" y1="560" x2="166.1" y2="543.4" stroke="#fbbf24" stroke-opacity="0.38" stroke-width="1" stroke-linecap="round"/>
</g>
<g id="signal-layers" opacity="0.92">
<line x1="497.57603749632835" y1="357.0227427314967" x2="599.1" y2="496.8" stroke="#a78bfa" stroke-opacity="0.07" stroke-width="1.5" stroke-linecap="round"/><ellipse cx="497.57603749632835" cy="357.0227427314967" rx="144" ry="58" fill="#a78bfa" opacity="0.05" transform="rotate(144 497.57603749632835 357.0227427314967)"/>
<line x1="200" y1="436.23192332684994" x2="267.3" y2="298.2" stroke="#a78bfa" stroke-opacity="0.11" stroke-width="1.5" stroke-linecap="round"/><circle cx="200" cy="436.23192332684994" r="45" fill="#a78bfa" opacity="0.16" transform="rotate(26 200 436.23192332684994)"/>
<line x1="420" y1="341.7959341034293" x2="288.7" y2="259.8" stroke="#a78bfa" stroke-opacity="0.11" stroke-width="1.5" stroke-linecap="round"/><line x1="420" y1="341.7959341034293" x2="515.7" y2="276.2" stroke="#a78bfa" stroke-opacity="0.32" stroke-width="2.5" stroke-linecap="round"/>
<line x1="174.1162660997361" y1="502" x2="143.2" y2="343.0" stroke="#a78bfa" stroke-opacity="0.17" stroke-width="1.5" stroke-linecap="round"/><line x1="174.1162660997361" y1="502" x2="359.6" y2="486.5" stroke="#a78bfa" stroke-opacity="0.50" stroke-width="2.5" stroke-linecap="round"/>
<line x1="400" y1="422" x2="384.8" y2="248.7" stroke="#a78bfa" stroke-opacity="0.22" stroke-width="1.5" stroke-linecap="round"/><line x1="400" y1="422" x2="602.2" y2="414.4" stroke="#a78bfa" stroke-opacity="0.64" stroke-width="2.5" stroke-linecap="round"/>
<line x1="213.1630077213049" y1="204.24784515053034" x2="254.5" y2="60.1" stroke="#a78bfa" stroke-opacity="0.16" stroke-width="1.5" stroke-linecap="round"/><circle cx="213.1630077213049" cy="204.24784515053034" r="44" fill="#a78bfa" opacity="0.23" transform="rotate(16 213.1630077213049 204.24784515053034)"/>
<line x1="539.105671364814" y1="239.12700440734625" x2="582.1" y2="142.7" stroke="#a78bfa" stroke-opacity="0.10" stroke-width="1.5" stroke-linecap="round"/><circle cx="539.105671364814" cy="239.12700440734625" r="31" fill="#a78bfa" opacity="0.14" transform="rotate(24 539.105671364814 239.12700440734625)"/>
<line x1="611.7088397778571" y1="442.85781636834145" x2="608.3" y2="345.7" stroke="#a78bfa" stroke-opacity="0.09" stroke-width="1.5" stroke-linecap="round"/><circle cx="611.7088397778571" cy="442.85781636834145" r="28" fill="#a78bfa" opacity="0.13" transform="rotate(-2 611.7088397778571 442.85781636834145)"/>
<line x1="214.62224297225475" y1="402.1439587697387" x2="268.6" y2="337.8" stroke="#a78bfa" stroke-opacity="0.07" stroke-width="1.5" stroke-linecap="round"/><circle cx="214.62224297225475" cy="402.1439587697387" r="25" fill="#a78bfa" opacity="0.10" transform="rotate(40 214.62224297225475 402.1439587697387)"/>
<line x1="184.0616005472839" y1="298.03781390190125" x2="313.5" y2="305.2" stroke="#a78bfa" stroke-opacity="0.21" stroke-width="1.5" stroke-linecap="round"/><line x1="184.0616005472839" y1="298.03781390190125" x2="175.7" y2="362.7" stroke="#a78bfa" stroke-opacity="0.59" stroke-width="2.5" stroke-linecap="round"/>
<line x1="348.8341978006065" y1="203.8334133196622" x2="466.5" y2="149.4" stroke="#a78bfa" stroke-opacity="0.21" stroke-width="1.5" stroke-linecap="round"/><line x1="348.8341978006065" y1="203.8334133196622" x2="412.3" y2="262.6" stroke="#a78bfa" stroke-opacity="0.59" stroke-width="2.5" stroke-linecap="round"/>
<line x1="310" y1="462" x2="399.9" y2="343.4" stroke="#a78bfa" stroke-opacity="0.27" stroke-width="1.5" stroke-linecap="round"/><line x1="310" y1="462" x2="448.3" y2="507.0" stroke="#a78bfa" stroke-opacity="0.76" stroke-width="2.5" stroke-linecap="round"/>
<line x1="400" y1="382" x2="384.2" y2="253.4" stroke="#a78bfa" stroke-opacity="0.20" stroke-width="1.5" stroke-linecap="round"/><circle cx="400" cy="382" r="38" fill="#a78bfa" opacity="0.28" transform="rotate(-7 400 382)"/>
</g>
<g id="foreground" filter="url(#neonBloom)">
<polyline points="400.0,502 360.0,502 400.0,292.5 440.0,502" fill="none" stroke="#a78bfa" stroke-width="2.25" stroke-linejoin="miter" stroke-linecap="square"/>
<line x1="400.0" y1="502" x2="400.0" y2="520.0" stroke="#a78bfa" stroke-opacity="0.35" stroke-width="1.5"/>
<circle cx="310.0" cy="462.0" r="4" fill="none" stroke="#a78bfa" stroke-width="1.5"/>
<circle cx="427.9" cy="511.2" r="4" fill="none" stroke="#fbbf24" stroke-width="1.5" stroke-opacity="0.85"/>
<line x1="310.0" y1="462.0" x2="427.9" y2="511.2" stroke="rgba(255,255,255,0.06)" stroke-width="1"/>
</g>
</svg>