<svg xmlns="http://www.w3.org/2000/svg" viewBox="0 0 800 800" width="100%" height="100%" role="img" aria-label="Pythh signal composition — minimalist neon vector">
<defs>
<linearGradient id="void" x1="0" y1="0" x2="0" y2="1"><stop offset="0%" stop-color="#050508"/><stop offset="72%" stop-color="#0a0a0c"/><stop offset="100%" stop-color="#050508"/></linearGradient>
<linearGradient id="floorGlow" x1="0" y1="0" x2="0" y2="1"><stop offset="0%" stop-color="#a78bfa" stop-opacity="0"/><stop offset="100%" stop-color="#a78bfa" stop-opacity="0.07"/></linearGradient>
<filter id="neonBloom" x="-20%" y="-20%" width="140%" height="140%"><feGaussianBlur in="SourceGraphic" stdDeviation="2.2" result="blur"/><feMerge><feMergeNode in="blur"/><feMergeNode in="SourceGraphic"/></feMerge></filter>
</defs>
<g id="background">
<rect width="800" height="800" fill="url(#void)"/>
<rect x="0" y="520" width="800" height="280" fill="url(#floorGlow)"/>
<line x1="48" y1="520" x2="752" y2="520" stroke="rgba(255,255,255,0.06)" stroke-width="1"/>
<circle cx="400" cy="560" r="356.5" fill="none" stroke="rgba(255,255,255,0.03)" stroke-width="1"/>
</g>
<g id="midground">
<path d="M 195.9 755.1 A 296.5 296.5 0 1 1 604.1 755.1" fill="none" stroke="#a78bfa" stroke-opacity="0.22" stroke-width="1.5" stroke-linecap="round"/>
<path d="M 185.3 687.5 A 260.5 260.5 0 1 1 614.7 687.5" fill="none" stroke="rgba(255,255,255,0.06)" stroke-width="1" stroke-linecap="round"/>
<line x1="720" y1="512" x2="720" y2="441.3" stroke="#a78bfa" stroke-opacity="0.45" stroke-width="1.5" stroke-linecap="round"/>
<line x1="706" y1="512" x2="706" y2="449.5" stroke="rgba(255,255,255,0.06)" stroke-opacity="0.2" stroke-width="1.5" stroke-linecap="round"/>
<line x1="692" y1="512" x2="692" y2="474.3" stroke="rgba(255,255,255,0.06)" stroke-opacity="0.2" stroke-width="1.5" stroke-linecap="round"/>
<line x1="678" y1="512" x2="678" y2="476.4" stroke="rgba(255,255,255,0.06)" stroke-opacity="0.2" stroke-width="1.5" stroke-linecap="round"/>
<line x1="664" y1="512" x2="664" y2="481.9" stroke="rgba(255,255,255,0.06)" stroke-opacity="0.2" stroke-width="1.5" stroke-linecap="round"/>
<line x1="72" y1="548" x2="107.2" y2="534.7" stroke="#fbbf24" stroke-opacity="0.38" stroke-width="1" stroke-linecap="round"/>
<line x1="82" y1="554" x2="122.0" y2="539.0" stroke="#fbbf24" stroke-opacity="0.38" stroke-width="1" stroke-linecap="round"/>
<line x1="92" y1="560" x2="138.6" y2="542.5" stroke="#fbbf24" stroke-opacity="0.38" stroke-width="1" stroke-linecap="round"/>
<line x1="102" y1="566" x2="146.3" y2="549.3" stroke="#fbbf24" stroke-opacity="0.38" stroke-width="1" stroke-linecap="round"/>
<line x1="112" y1="572" x2="143.7" y2="560.1" stroke="#fbbf24" stroke-opacity="0.38" stroke-width="1" stroke-linecap="round"/>
<line x1="122" y1="578" x2="156.7" y2="564.9" stroke="#fbbf24" stroke-opacity="0.38" stroke-width="1" stroke-linecap="round"/>
</g>
<g id="foreground" filter="url(#neonBloom)">
<polyline points="400.0,520 359.3,520 400.0,303.5 440.8,520" fill="none" stroke="#a78bfa" stroke-width="2.25" stroke-linejoin="miter" stroke-linecap="square"/>
<line x1="400.0" y1="520" x2="400.0" y2="538.0" stroke="#a78bfa" stroke-opacity="0.35" stroke-width="1.5"/>
<circle cx="310.0" cy="480.0" r="4" fill="none" stroke="#a78bfa" stroke-width="1.5"/>
<circle cx="432.8" cy="528.3" r="4" fill="none" stroke="#fbbf24" stroke-width="1.5" stroke-opacity="0.85"/>
<line x1="310.0" y1="480.0" x2="432.8" y2="528.3" stroke="rgba(255,255,255,0.06)" stroke-width="1"/>
</g>
</svg>