<svg xmlns="http://www.w3.org/2000/svg" viewBox="0 0 800 800" width="100%" height="100%" role="img" aria-label="Pythh Signal Art — layered abstract digital composition">
<defs>
<linearGradient id="void" x1="0" y1="0" x2="0" y2="1"><stop offset="0%" stop-color="#050508"/><stop offset="72%" stop-color="#0a0a0c"/><stop offset="100%" stop-color="#050508"/></linearGradient>
<linearGradient id="floorGlow" x1="0" y1="0" x2="0" y2="1"><stop offset="0%" stop-color="#fbbf24" stop-opacity="0"/><stop offset="100%" stop-color="#fbbf24" stop-opacity="0.09"/></linearGradient>
<filter id="neonBloom" x="-20%" y="-20%" width="140%" height="140%"><feGaussianBlur in="SourceGraphic" stdDeviation="2.2" result="blur"/><feMerge><feMergeNode in="blur"/><feMergeNode in="SourceGraphic"/></feMerge></filter>
</defs>
<g id="background">
<rect width="800" height="800" fill="url(#void)"/>
<path d="M 0 188 C 266 20 594 259 690 222" fill="none" stroke="#a78bfa" stroke-opacity="0.07" stroke-width="3.3" stroke-linecap="round"/>
<path d="M 0 288 C 129 178 641 433 712 288" fill="none" stroke="#a78bfa" stroke-opacity="0.08" stroke-width="2.0" stroke-linecap="round"/>
<path d="M 0 449 C 214 356 552 582 748 475" fill="none" stroke="#a78bfa" stroke-opacity="0.07" stroke-width="3.8" stroke-linecap="round"/>
<path d="M 0 239 C 211 121 500 312 723 268" fill="none" stroke="#a78bfa" stroke-opacity="0.12" stroke-width="2.7" stroke-linecap="round"/>
<path d="M 0 419 C 177 311 515 550 703 426" fill="none" stroke="#a78bfa" stroke-opacity="0.08" stroke-width="3.2" stroke-linecap="round"/>
<path d="M 0 252 C 202 78 480 362 738 224" fill="none" stroke="#a78bfa" stroke-opacity="0.10" stroke-width="3.7" stroke-linecap="round"/>
<path d="M 0 378 C 281 183 537 441 692 375" fill="none" stroke="#a78bfa" stroke-opacity="0.07" stroke-width="2.1" stroke-linecap="round"/>
<path d="M 0 60 Q 267 -32.8466297313571 400 85 T 800 45" fill="none" stroke="#a78bfa" stroke-opacity="0.07" stroke-width="2.5" stroke-linecap="round"/>
<path d="M 0 98 Q 267 -21.959493493661284 400 123 T 800 83" fill="none" stroke="#a78bfa" stroke-opacity="0.10" stroke-width="2.5" stroke-linecap="round"/>
<path d="M 0 136 Q 267 27.953638093546033 400 161 T 800 121" fill="none" stroke="#a78bfa" stroke-opacity="0.12" stroke-width="2.5" stroke-linecap="round"/>
<path d="M 0 174 Q 267 45.114155179820955 400 199 T 800 159" fill="none" stroke="#a78bfa" stroke-opacity="0.15" stroke-width="2.5" stroke-linecap="round"/>
<path d="M 0 212 Q 267 85.92707103397697 400 237 T 800 197" fill="none" stroke="#a78bfa" stroke-opacity="0.17" stroke-width="2.5" stroke-linecap="round"/>
<path d="M 0 250 Q 267 135.47124419361353 400 275 T 800 235" fill="none" stroke="#a78bfa" stroke-opacity="0.20" stroke-width="2.5" stroke-linecap="round"/>
<rect x="0" y="502" width="800" height="298" fill="url(#floorGlow)"/>
<line x1="48" y1="502" x2="752" y2="502" stroke="rgba(255,255,255,0.06)" stroke-width="1"/>
<circle cx="400" cy="542" r="356.5" fill="none" stroke="rgba(255,255,255,0.03)" stroke-width="1"/>
</g>
<g id="midground">
<path d="M 195.9 737.1 A 296.5 296.5 0 1 1 604.1 737.1" fill="none" stroke="#a78bfa" stroke-opacity="0.22" stroke-width="1.5" stroke-linecap="round"/>
<path d="M 185.3 669.5 A 260.5 260.5 0 1 1 614.7 669.5" fill="none" stroke="rgba(255,255,255,0.06)" stroke-width="1" stroke-linecap="round"/>
<line x1="720" y1="494" x2="720" y2="423.3" stroke="#a78bfa" stroke-opacity="0.45" stroke-width="1.5" stroke-linecap="round"/>
<line x1="706" y1="494" x2="706" y2="432.1" stroke="rgba(255,255,255,0.06)" stroke-opacity="0.2" stroke-width="1.5" stroke-linecap="round"/>
<line x1="692" y1="494" x2="692" y2="456.3" stroke="rgba(255,255,255,0.06)" stroke-opacity="0.2" stroke-width="1.5" stroke-linecap="round"/>
<line x1="678" y1="494" x2="678" y2="458.4" stroke="rgba(255,255,255,0.06)" stroke-opacity="0.2" stroke-width="1.5" stroke-linecap="round"/>
<line x1="664" y1="494" x2="664" y2="463.9" stroke="rgba(255,255,255,0.06)" stroke-opacity="0.2" stroke-width="1.5" stroke-linecap="round"/>
<line x1="72" y1="530" x2="117.0" y2="513.1" stroke="#fbbf24" stroke-opacity="0.38" stroke-width="1" stroke-linecap="round"/>
<line x1="82" y1="536" x2="136.0" y2="515.7" stroke="#fbbf24" stroke-opacity="0.38" stroke-width="1" stroke-linecap="round"/>
<line x1="92" y1="542" x2="127.9" y2="528.5" stroke="#fbbf24" stroke-opacity="0.38" stroke-width="1" stroke-linecap="round"/>
<line x1="102" y1="548" x2="145.3" y2="531.7" stroke="#fbbf24" stroke-opacity="0.38" stroke-width="1" stroke-linecap="round"/>
<line x1="112" y1="554" x2="142.9" y2="542.4" stroke="#fbbf24" stroke-opacity="0.38" stroke-width="1" stroke-linecap="round"/>
<line x1="122" y1="560" x2="173.8" y2="540.5" stroke="#fbbf24" stroke-opacity="0.38" stroke-width="1" stroke-linecap="round"/>
</g>
<g id="signal-layers" opacity="0.92">
<line x1="349.6024012006819" y1="269.83804957941175" x2="440.4" y2="409.7" stroke="#a78bfa" stroke-opacity="0.08" stroke-width="1.5" stroke-linecap="round"/><ellipse cx="349.6024012006819" cy="269.83804957941175" rx="139" ry="56" fill="#a78bfa" opacity="0.06" transform="rotate(147 349.6024012006819 269.83804957941175)"/>
<line x1="200" y1="313.52488808333874" x2="338.4" y2="227.0" stroke="#a78bfa" stroke-opacity="0.11" stroke-width="1.5" stroke-linecap="round"/><circle cx="200" cy="313.52488808333874" r="48" fill="#a78bfa" opacity="0.16" transform="rotate(58 200 313.52488808333874)"/>
<line x1="420" y1="310.0563019886613" x2="428.7" y2="144.7" stroke="#a78bfa" stroke-opacity="0.11" stroke-width="1.5" stroke-linecap="round"/><line x1="420" y1="310.0563019886613" x2="612.9" y2="314.4" stroke="#a78bfa" stroke-opacity="0.32" stroke-width="2.5" stroke-linecap="round"/>
<line x1="129.88580837845802" y1="502" x2="144.0" y2="340.6" stroke="#a78bfa" stroke-opacity="0.17" stroke-width="1.5" stroke-linecap="round"/><line x1="129.88580837845802" y1="502" x2="318.2" y2="509.1" stroke="#a78bfa" stroke-opacity="0.50" stroke-width="2.5" stroke-linecap="round"/>
<line x1="400" y1="422" x2="311.2" y2="268.2" stroke="#a78bfa" stroke-opacity="0.23" stroke-width="1.5" stroke-linecap="round"/><line x1="400" y1="422" x2="579.4" y2="377.6" stroke="#a78bfa" stroke-opacity="0.67" stroke-width="2.5" stroke-linecap="round"/>
<line x1="677.1505205892026" y1="204.12902262061834" x2="621.9" y2="67.3" stroke="#a78bfa" stroke-opacity="0.16" stroke-width="1.5" stroke-linecap="round"/><circle cx="677.1505205892026" cy="204.12902262061834" r="43" fill="#a78bfa" opacity="0.23" transform="rotate(-22 677.1505205892026 204.12902262061834)"/>
<line x1="243.87808196246624" y1="313.12508422881365" x2="191.7" y2="222.7" stroke="#a78bfa" stroke-opacity="0.10" stroke-width="1.5" stroke-linecap="round"/><circle cx="243.87808196246624" cy="313.12508422881365" r="30" fill="#a78bfa" opacity="0.14" transform="rotate(-30 243.87808196246624 313.12508422881365)"/>
<line x1="267.0600830204785" y1="355.17332281917334" x2="284.6" y2="255.9" stroke="#a78bfa" stroke-opacity="0.09" stroke-width="1.5" stroke-linecap="round"/><circle cx="267.0600830204785" cy="355.17332281917334" r="29" fill="#a78bfa" opacity="0.13" transform="rotate(10 267.0600830204785 355.17332281917334)"/>
<line x1="659.0063053742051" y1="604.7724327817559" x2="652.6" y2="513.8" stroke="#a78bfa" stroke-opacity="0.08" stroke-width="1.5" stroke-linecap="round"/><circle cx="659.0063053742051" cy="604.7724327817559" r="27" fill="#a78bfa" opacity="0.11" transform="rotate(-4 659.0063053742051 604.7724327817559)"/>
<line x1="413.06762805208564" y1="334.1140999831259" x2="542.5" y2="341.4" stroke="#a78bfa" stroke-opacity="0.21" stroke-width="1.5" stroke-linecap="round"/><line x1="413.06762805208564" y1="334.1140999831259" x2="404.6" y2="398.8" stroke="#a78bfa" stroke-opacity="0.59" stroke-width="2.5" stroke-linecap="round"/>
<line x1="450.1685717422515" y1="406.3799827825278" x2="567.8" y2="352.1" stroke="#a78bfa" stroke-opacity="0.21" stroke-width="1.5" stroke-linecap="round"/><line x1="450.1685717422515" y1="406.3799827825278" x2="513.5" y2="465.2" stroke="#a78bfa" stroke-opacity="0.59" stroke-width="2.5" stroke-linecap="round"/>
<line x1="310" y1="462" x2="400.0" y2="343.5" stroke="#a78bfa" stroke-opacity="0.27" stroke-width="1.5" stroke-linecap="round"/><line x1="310" y1="462" x2="448.2" y2="507.0" stroke="#a78bfa" stroke-opacity="0.76" stroke-width="2.5" stroke-linecap="round"/>
<line x1="400" y1="382" x2="388.7" y2="252.9" stroke="#a78bfa" stroke-opacity="0.20" stroke-width="1.5" stroke-linecap="round"/><circle cx="400" cy="382" r="38" fill="#a78bfa" opacity="0.28" transform="rotate(-5 400 382)"/>
</g>
<g id="foreground" filter="url(#neonBloom)">
</g>
</svg>