<svg xmlns="http://www.w3.org/2000/svg" viewBox="0 0 800 800" width="100%" height="100%" role="img" aria-label="Pythh Signal Art — layered abstract digital composition">
<defs>
<linearGradient id="void" x1="0" y1="0" x2="0" y2="1"><stop offset="0%" stop-color="#050508"/><stop offset="72%" stop-color="#0a0a0c"/><stop offset="100%" stop-color="#050508"/></linearGradient>
<linearGradient id="floorGlow" x1="0" y1="0" x2="0" y2="1"><stop offset="0%" stop-color="#fbbf24" stop-opacity="0"/><stop offset="100%" stop-color="#fbbf24" stop-opacity="0.09"/></linearGradient>
<filter id="neonBloom" x="-20%" y="-20%" width="140%" height="140%"><feGaussianBlur in="SourceGraphic" stdDeviation="2.2" result="blur"/><feMerge><feMergeNode in="blur"/><feMergeNode in="SourceGraphic"/></feMerge></filter>
</defs>
<g id="background">
<rect width="800" height="800" fill="url(#void)"/>
<path d="M 0 280 C 214 133 539 415 711 283" fill="none" stroke="#a78bfa" stroke-opacity="0.07" stroke-width="2.1" stroke-linecap="round"/>
<path d="M 0 231 C 284 106 524 342 688 232" fill="none" stroke="#a78bfa" stroke-opacity="0.12" stroke-width="3.9" stroke-linecap="round"/>
<path d="M 0 591 C 262 411 658 699 756 556" fill="none" stroke="#a78bfa" stroke-opacity="0.07" stroke-width="3.1" stroke-linecap="round"/>
<path d="M 0 436 C 222 305 626 557 717 434" fill="none" stroke="#a78bfa" stroke-opacity="0.10" stroke-width="2.5" stroke-linecap="round"/>
<path d="M 355.0 364.1 A 90 90 0 1 1 355.0 519.9" fill="none" stroke="#a78bfa" stroke-opacity="0.06" stroke-width="1.5" stroke-linecap="round"/>
<path d="M 345.7 307.6 A 145 145 0 1 1 345.7 576.4" fill="none" stroke="#a78bfa" stroke-opacity="0.09" stroke-width="1.5" stroke-linecap="round"/>
<path d="M 351.6 247.9 A 200 200 0 1 1 351.6 636.1" fill="none" stroke="#a78bfa" stroke-opacity="0.12" stroke-width="1.5" stroke-linecap="round"/>
<path d="M 373.3 188.4 A 255 255 0 1 1 373.3 695.6" fill="none" stroke="#a78bfa" stroke-opacity="0.15" stroke-width="1.5" stroke-linecap="round"/>
<rect x="0" y="502" width="800" height="298" fill="url(#floorGlow)"/>
<line x1="48" y1="502" x2="752" y2="502" stroke="rgba(255,255,255,0.06)" stroke-width="1"/>
<circle cx="400" cy="542" r="352" fill="none" stroke="rgba(255,255,255,0.03)" stroke-width="1"/>
</g>
<g id="midground">
<path d="M 183.0 717.4 A 292 292 0 1 1 617.0 717.4" fill="none" stroke="#a78bfa" stroke-opacity="0.22" stroke-width="1.5" stroke-linecap="round"/>
<path d="M 178.3 650.0 A 256 256 0 1 1 621.7 650.0" fill="none" stroke="rgba(255,255,255,0.06)" stroke-width="1" stroke-linecap="round"/>
<line x1="720" y1="494" x2="720" y2="426.0" stroke="#a78bfa" stroke-opacity="0.45" stroke-width="1.5" stroke-linecap="round"/>
<line x1="706" y1="494" x2="706" y2="430.9" stroke="rgba(255,255,255,0.06)" stroke-opacity="0.2" stroke-width="1.5" stroke-linecap="round"/>
<line x1="692" y1="494" x2="692" y2="455.1" stroke="rgba(255,255,255,0.06)" stroke-opacity="0.2" stroke-width="1.5" stroke-linecap="round"/>
<line x1="678" y1="494" x2="678" y2="460.6" stroke="rgba(255,255,255,0.06)" stroke-opacity="0.2" stroke-width="1.5" stroke-linecap="round"/>
<line x1="664" y1="494" x2="664" y2="467.8" stroke="rgba(255,255,255,0.06)" stroke-opacity="0.2" stroke-width="1.5" stroke-linecap="round"/>
<line x1="72" y1="530" x2="105.7" y2="517.3" stroke="#fbbf24" stroke-opacity="0.38" stroke-width="1" stroke-linecap="round"/>
<line x1="82" y1="536" x2="116.4" y2="523.0" stroke="#fbbf24" stroke-opacity="0.38" stroke-width="1" stroke-linecap="round"/>
<line x1="92" y1="542" x2="124.9" y2="529.6" stroke="#fbbf24" stroke-opacity="0.38" stroke-width="1" stroke-linecap="round"/>
<line x1="102" y1="548" x2="147.5" y2="530.9" stroke="#fbbf24" stroke-opacity="0.38" stroke-width="1" stroke-linecap="round"/>
<line x1="112" y1="554" x2="155.0" y2="537.8" stroke="#fbbf24" stroke-opacity="0.38" stroke-width="1" stroke-linecap="round"/>
<line x1="122" y1="560" x2="174.9" y2="540.1" stroke="#fbbf24" stroke-opacity="0.38" stroke-width="1" stroke-linecap="round"/>
</g>
<g id="signal-layers" opacity="0.92">
<line x1="404.6331631951034" y1="323.2469716016203" x2="540.4" y2="404.8" stroke="#a78bfa" stroke-opacity="0.07" stroke-width="1.5" stroke-linecap="round"/><ellipse cx="404.6331631951034" cy="323.2469716016203" rx="132" ry="53" fill="#a78bfa" opacity="0.05" transform="rotate(121 404.6331631951034 323.2469716016203)"/>
<line x1="200" y1="354.97098334133625" x2="320.3" y2="257.6" stroke="#a78bfa" stroke-opacity="0.11" stroke-width="1.5" stroke-linecap="round"/><circle cx="200" cy="354.97098334133625" r="45" fill="#a78bfa" opacity="0.16" transform="rotate(51 200 354.97098334133625)"/>
<line x1="420" y1="406.7027022317052" x2="540.3" y2="309.3" stroke="#a78bfa" stroke-opacity="0.11" stroke-width="1.5" stroke-linecap="round"/><line x1="420" y1="406.7027022317052" x2="533.7" y2="466.9" stroke="#a78bfa" stroke-opacity="0.32" stroke-width="2.5" stroke-linecap="round"/>
<line x1="177.6089078746736" y1="502" x2="208.5" y2="343.0" stroke="#a78bfa" stroke-opacity="0.17" stroke-width="1.5" stroke-linecap="round"/><line x1="177.6089078746736" y1="502" x2="363.1" y2="517.5" stroke="#a78bfa" stroke-opacity="0.50" stroke-width="2.5" stroke-linecap="round"/>
<line x1="400" y1="422" x2="323.7" y2="265.6" stroke="#a78bfa" stroke-opacity="0.22" stroke-width="1.5" stroke-linecap="round"/><line x1="400" y1="422" x2="582.5" y2="383.9" stroke="#a78bfa" stroke-opacity="0.64" stroke-width="2.5" stroke-linecap="round"/>
<line x1="511.6057328507304" y1="315.9405155479908" x2="417.2" y2="199.4" stroke="#a78bfa" stroke-opacity="0.16" stroke-width="1.5" stroke-linecap="round"/><circle cx="511.6057328507304" cy="315.9405155479908" r="44" fill="#a78bfa" opacity="0.23" transform="rotate(-39 511.6057328507304 315.9405155479908)"/>
<line x1="534.8436907865107" y1="351.5648727118969" x2="527.4" y2="245.0" stroke="#a78bfa" stroke-opacity="0.10" stroke-width="1.5" stroke-linecap="round"/><circle cx="534.8436907865107" cy="351.5648727118969" r="31" fill="#a78bfa" opacity="0.14" transform="rotate(-4 534.8436907865107 351.5648727118969)"/>
<line x1="541.4816268160939" y1="400.3432447835803" x2="568.3" y2="306.9" stroke="#a78bfa" stroke-opacity="0.09" stroke-width="1.5" stroke-linecap="round"/><circle cx="541.4816268160939" cy="400.3432447835803" r="28" fill="#a78bfa" opacity="0.13" transform="rotate(16 541.4816268160939 400.3432447835803)"/>
<line x1="187.97082904726267" y1="316.1728698387742" x2="152.5" y2="240.0" stroke="#a78bfa" stroke-opacity="0.07" stroke-width="1.5" stroke-linecap="round"/><circle cx="187.97082904726267" cy="316.1728698387742" r="25" fill="#a78bfa" opacity="0.10" transform="rotate(-25 187.97082904726267 316.1728698387742)"/>
<line x1="190.20254475064576" y1="331.87397581525147" x2="319.8" y2="329.1" stroke="#a78bfa" stroke-opacity="0.21" stroke-width="1.5" stroke-linecap="round"/><line x1="190.20254475064576" y1="331.87397581525147" x2="193.4" y2="396.7" stroke="#a78bfa" stroke-opacity="0.59" stroke-width="2.5" stroke-linecap="round"/>
<line x1="282.3037374857813" y1="275.43730542995036" x2="395.4" y2="212.2" stroke="#a78bfa" stroke-opacity="0.21" stroke-width="1.5" stroke-linecap="round"/><line x1="282.3037374857813" y1="275.43730542995036" x2="356.1" y2="332.0" stroke="#a78bfa" stroke-opacity="0.59" stroke-width="2.5" stroke-linecap="round"/>
<line x1="310" y1="462" x2="390.6" y2="336.9" stroke="#a78bfa" stroke-opacity="0.27" stroke-width="1.5" stroke-linecap="round"/><line x1="310" y1="462" x2="455.9" y2="502.3" stroke="#a78bfa" stroke-opacity="0.76" stroke-width="2.5" stroke-linecap="round"/>
<line x1="400" y1="382" x2="413.5" y2="253.1" stroke="#a78bfa" stroke-opacity="0.20" stroke-width="1.5" stroke-linecap="round"/><circle cx="400" cy="382" r="38" fill="#a78bfa" opacity="0.28" transform="rotate(6 400 382)"/>
</g>
<g id="foreground" filter="url(#neonBloom)">
<polyline points="400.0,502 360.0,502 400.0,292.5 440.0,502" fill="none" stroke="#a78bfa" stroke-width="2.25" stroke-linejoin="miter" stroke-linecap="square"/>
<line x1="400.0" y1="502" x2="400.0" y2="520.0" stroke="#a78bfa" stroke-opacity="0.35" stroke-width="1.5"/>
<circle cx="310.0" cy="462.0" r="4" fill="none" stroke="#a78bfa" stroke-width="1.5"/>
<circle cx="434.4" cy="506.1" r="4" fill="none" stroke="#fbbf24" stroke-width="1.5" stroke-opacity="0.85"/>
<line x1="310.0" y1="462.0" x2="434.4" y2="506.1" stroke="rgba(255,255,255,0.06)" stroke-width="1"/>
</g>
</svg>