<svg xmlns="http://www.w3.org/2000/svg" viewBox="0 0 800 800" width="100%" height="100%" role="img" aria-label="Pythh Signal Art — layered abstract digital composition">
<defs>
<linearGradient id="void" x1="0" y1="0" x2="0" y2="1"><stop offset="0%" stop-color="#050508"/><stop offset="72%" stop-color="#0a0a0c"/><stop offset="100%" stop-color="#050508"/></linearGradient>
<linearGradient id="floorGlow" x1="0" y1="0" x2="0" y2="1"><stop offset="0%" stop-color="#fbbf24" stop-opacity="0"/><stop offset="100%" stop-color="#fbbf24" stop-opacity="0.09"/></linearGradient>
<filter id="neonBloom" x="-20%" y="-20%" width="140%" height="140%"><feGaussianBlur in="SourceGraphic" stdDeviation="2.2" result="blur"/><feMerge><feMergeNode in="blur"/><feMergeNode in="SourceGraphic"/></feMerge></filter>
</defs>
<g id="background">
<rect width="800" height="800" fill="url(#void)"/>
<line x1="100" y1="800" x2="90" y2="100" stroke="#a78bfa" stroke-opacity="0.16" stroke-width="2" stroke-linecap="round"/>
<line x1="230" y1="800" x2="216" y2="100" stroke="#a78bfa" stroke-opacity="0.16" stroke-width="2" stroke-linecap="round"/>
<line x1="360" y1="800" x2="352" y2="100" stroke="#a78bfa" stroke-opacity="0.13" stroke-width="2" stroke-linecap="round"/>
<line x1="490" y1="800" x2="492" y2="100" stroke="#a78bfa" stroke-opacity="0.15" stroke-width="2" stroke-linecap="round"/>
<line x1="620" y1="800" x2="637" y2="100" stroke="#a78bfa" stroke-opacity="0.11" stroke-width="2" stroke-linecap="round"/>
<rect x="0" y="502" width="800" height="298" fill="url(#floorGlow)"/>
<line x1="48" y1="502" x2="752" y2="502" stroke="rgba(255,255,255,0.06)" stroke-width="1"/>
<circle cx="400" cy="542" r="352" fill="none" stroke="rgba(255,255,255,0.03)" stroke-width="1"/>
</g>
<g id="midground">
<path d="M 183.0 717.4 A 292 292 0 1 1 617.0 717.4" fill="none" stroke="#a78bfa" stroke-opacity="0.22" stroke-width="1.5" stroke-linecap="round"/>
<path d="M 178.3 650.0 A 256 256 0 1 1 621.7 650.0" fill="none" stroke="rgba(255,255,255,0.06)" stroke-width="1" stroke-linecap="round"/>
<line x1="720" y1="494" x2="720" y2="426.0" stroke="#a78bfa" stroke-opacity="0.45" stroke-width="1.5" stroke-linecap="round"/>
<line x1="706" y1="494" x2="706" y2="430.9" stroke="rgba(255,255,255,0.06)" stroke-opacity="0.2" stroke-width="1.5" stroke-linecap="round"/>
<line x1="692" y1="494" x2="692" y2="455.1" stroke="rgba(255,255,255,0.06)" stroke-opacity="0.2" stroke-width="1.5" stroke-linecap="round"/>
<line x1="678" y1="494" x2="678" y2="460.6" stroke="rgba(255,255,255,0.06)" stroke-opacity="0.2" stroke-width="1.5" stroke-linecap="round"/>
<line x1="664" y1="494" x2="664" y2="467.8" stroke="rgba(255,255,255,0.06)" stroke-opacity="0.2" stroke-width="1.5" stroke-linecap="round"/>
<line x1="72" y1="530" x2="123.8" y2="510.5" stroke="#fbbf24" stroke-opacity="0.38" stroke-width="1" stroke-linecap="round"/>
<line x1="82" y1="536" x2="130.7" y2="517.7" stroke="#fbbf24" stroke-opacity="0.38" stroke-width="1" stroke-linecap="round"/>
<line x1="92" y1="542" x2="123.0" y2="530.3" stroke="#fbbf24" stroke-opacity="0.38" stroke-width="1" stroke-linecap="round"/>
<line x1="102" y1="548" x2="136.5" y2="535.0" stroke="#fbbf24" stroke-opacity="0.38" stroke-width="1" stroke-linecap="round"/>
<line x1="112" y1="554" x2="147.9" y2="540.5" stroke="#fbbf24" stroke-opacity="0.38" stroke-width="1" stroke-linecap="round"/>
<line x1="122" y1="560" x2="163.4" y2="544.4" stroke="#fbbf24" stroke-opacity="0.38" stroke-width="1" stroke-linecap="round"/>
</g>
<g id="signal-layers" opacity="0.92">
<line x1="496.7105775512755" y1="362.01634182594717" x2="619.5" y2="441.8" stroke="#a78bfa" stroke-opacity="0.06" stroke-width="1.5" stroke-linecap="round"/><ellipse cx="496.7105775512755" cy="362.01634182594717" rx="122" ry="49" fill="#a78bfa" opacity="0.04" transform="rotate(123 496.7105775512755 362.01634182594717)"/>
<line x1="200" y1="309.5067210868001" x2="316.8" y2="207.9" stroke="#a78bfa" stroke-opacity="0.11" stroke-width="1.5" stroke-linecap="round"/><circle cx="200" cy="309.5067210868001" r="45" fill="#a78bfa" opacity="0.16" transform="rotate(49 200 309.5067210868001)"/>
<line x1="420" y1="320.76514657586813" x2="393.1" y2="168.3" stroke="#a78bfa" stroke-opacity="0.11" stroke-width="1.5" stroke-linecap="round"/><line x1="420" y1="320.76514657586813" x2="597.9" y2="307.3" stroke="#a78bfa" stroke-opacity="0.32" stroke-width="2.5" stroke-linecap="round"/>
<line x1="221.4263916015625" y1="502" x2="168.7" y2="348.8" stroke="#a78bfa" stroke-opacity="0.17" stroke-width="1.5" stroke-linecap="round"/><line x1="221.4263916015625" y1="502" x2="400.1" y2="475.6" stroke="#a78bfa" stroke-opacity="0.50" stroke-width="2.5" stroke-linecap="round"/>
<line x1="400" y1="422" x2="406.1" y2="248.1" stroke="#a78bfa" stroke-opacity="0.22" stroke-width="1.5" stroke-linecap="round"/><line x1="400" y1="422" x2="602.9" y2="425.0" stroke="#a78bfa" stroke-opacity="0.64" stroke-width="2.5" stroke-linecap="round"/>
<line x1="270.34462159499526" y1="488.19696839898825" x2="326.5" y2="349.1" stroke="#a78bfa" stroke-opacity="0.16" stroke-width="1.5" stroke-linecap="round"/><circle cx="270.34462159499526" cy="488.19696839898825" r="44" fill="#a78bfa" opacity="0.23" transform="rotate(22 270.34462159499526 488.19696839898825)"/>
<line x1="535.0493074022233" y1="192.45341684669256" x2="615.7" y2="122.4" stroke="#a78bfa" stroke-opacity="0.10" stroke-width="1.5" stroke-linecap="round"/><circle cx="535.0493074022233" cy="192.45341684669256" r="31" fill="#a78bfa" opacity="0.14" transform="rotate(49 535.0493074022233 192.45341684669256)"/>
<line x1="262.38805662840605" y1="334.6491679549217" x2="280.9" y2="239.2" stroke="#a78bfa" stroke-opacity="0.09" stroke-width="1.5" stroke-linecap="round"/><circle cx="262.38805662840605" cy="334.6491679549217" r="28" fill="#a78bfa" opacity="0.13" transform="rotate(11 262.38805662840605 334.6491679549217)"/>
<line x1="121.02963335812092" y1="504.4322809949517" x2="181.5" y2="446.1" stroke="#a78bfa" stroke-opacity="0.07" stroke-width="1.5" stroke-linecap="round"/><circle cx="121.02963335812092" cy="504.4322809949517" r="25" fill="#a78bfa" opacity="0.10" transform="rotate(46 121.02963335812092 504.4322809949517)"/>
<line x1="485.9752855822444" y1="191.2285948265344" x2="615.4" y2="197.8" stroke="#a78bfa" stroke-opacity="0.21" stroke-width="1.5" stroke-linecap="round"/><line x1="485.9752855822444" y1="191.2285948265344" x2="478.3" y2="255.9" stroke="#a78bfa" stroke-opacity="0.59" stroke-width="2.5" stroke-linecap="round"/>
<line x1="519.640759639442" y1="170.49843181855977" x2="637.0" y2="115.6" stroke="#a78bfa" stroke-opacity="0.21" stroke-width="1.5" stroke-linecap="round"/><line x1="519.640759639442" y1="170.49843181855977" x2="583.7" y2="229.2" stroke="#a78bfa" stroke-opacity="0.59" stroke-width="2.5" stroke-linecap="round"/>
<line x1="310" y1="462" x2="399.4" y2="343.0" stroke="#a78bfa" stroke-opacity="0.27" stroke-width="1.5" stroke-linecap="round"/><line x1="310" y1="462" x2="448.8" y2="506.7" stroke="#a78bfa" stroke-opacity="0.76" stroke-width="2.5" stroke-linecap="round"/>
<line x1="400" y1="382" x2="388.7" y2="252.9" stroke="#a78bfa" stroke-opacity="0.20" stroke-width="1.5" stroke-linecap="round"/><circle cx="400" cy="382" r="38" fill="#a78bfa" opacity="0.28" transform="rotate(-5 400 382)"/>
</g>
<g id="foreground" filter="url(#neonBloom)">
<polyline points="400.0,502 360.0,502 400.0,292.5 440.0,502" fill="none" stroke="#a78bfa" stroke-width="2.25" stroke-linejoin="miter" stroke-linecap="square"/>
<line x1="400.0" y1="502" x2="400.0" y2="520.0" stroke="#a78bfa" stroke-opacity="0.35" stroke-width="1.5"/>
<circle cx="310.0" cy="462.0" r="4" fill="none" stroke="#a78bfa" stroke-width="1.5"/>
<circle cx="428.3" cy="510.9" r="4" fill="none" stroke="#fbbf24" stroke-width="1.5" stroke-opacity="0.85"/>
<line x1="310.0" y1="462.0" x2="428.3" y2="510.9" stroke="rgba(255,255,255,0.06)" stroke-width="1"/>
</g>
</svg>