<svg xmlns="http://www.w3.org/2000/svg" viewBox="0 0 800 800" width="100%" height="100%" role="img" aria-label="Pythh Signal Art — layered abstract digital composition">
<defs>
<linearGradient id="void" x1="0" y1="0" x2="0" y2="1"><stop offset="0%" stop-color="#050508"/><stop offset="72%" stop-color="#0a0a0c"/><stop offset="100%" stop-color="#050508"/></linearGradient>
<linearGradient id="floorGlow" x1="0" y1="0" x2="0" y2="1"><stop offset="0%" stop-color="#fbbf24" stop-opacity="0"/><stop offset="100%" stop-color="#fbbf24" stop-opacity="0.09"/></linearGradient>
<filter id="neonBloom" x="-20%" y="-20%" width="140%" height="140%"><feGaussianBlur in="SourceGraphic" stdDeviation="2.2" result="blur"/><feMerge><feMergeNode in="blur"/><feMergeNode in="SourceGraphic"/></feMerge></filter>
</defs>
<g id="background">
<rect width="800" height="800" fill="url(#void)"/>
<path d="M 0 680 C 142 480 525 763 736 679" fill="none" stroke="#a78bfa" stroke-opacity="0.11" stroke-width="3.9" stroke-linecap="round"/>
<path d="M 0 367 C 187 226 646 496 699 335" fill="none" stroke="#a78bfa" stroke-opacity="0.06" stroke-width="3.4" stroke-linecap="round"/>
<path d="M 0 334 C 266 169 531 430 734 310" fill="none" stroke="#a78bfa" stroke-opacity="0.14" stroke-width="3.1" stroke-linecap="round"/>
<path d="M 0 527 C 197 368 643 600 754 506" fill="none" stroke="#a78bfa" stroke-opacity="0.14" stroke-width="3.9" stroke-linecap="round"/>
<path d="M 355.0 364.1 A 90 90 0 1 1 355.0 519.9" fill="none" stroke="#a78bfa" stroke-opacity="0.06" stroke-width="1.5" stroke-linecap="round"/>
<path d="M 345.7 307.6 A 145 145 0 1 1 345.7 576.4" fill="none" stroke="#a78bfa" stroke-opacity="0.09" stroke-width="1.5" stroke-linecap="round"/>
<path d="M 351.6 247.9 A 200 200 0 1 1 351.6 636.1" fill="none" stroke="#a78bfa" stroke-opacity="0.12" stroke-width="1.5" stroke-linecap="round"/>
<path d="M 373.3 188.4 A 255 255 0 1 1 373.3 695.6" fill="none" stroke="#a78bfa" stroke-opacity="0.15" stroke-width="1.5" stroke-linecap="round"/>
<rect x="0" y="502" width="800" height="298" fill="url(#floorGlow)"/>
<line x1="48" y1="502" x2="752" y2="502" stroke="rgba(255,255,255,0.06)" stroke-width="1"/>
<circle cx="400" cy="542" r="352" fill="none" stroke="rgba(255,255,255,0.03)" stroke-width="1"/>
</g>
<g id="midground">
<path d="M 183.0 717.4 A 292 292 0 1 1 617.0 717.4" fill="none" stroke="#a78bfa" stroke-opacity="0.22" stroke-width="1.5" stroke-linecap="round"/>
<path d="M 178.3 650.0 A 256 256 0 1 1 621.7 650.0" fill="none" stroke="rgba(255,255,255,0.06)" stroke-width="1" stroke-linecap="round"/>
<line x1="720" y1="494" x2="720" y2="426.0" stroke="#a78bfa" stroke-opacity="0.45" stroke-width="1.5" stroke-linecap="round"/>
<line x1="706" y1="494" x2="706" y2="430.4" stroke="rgba(255,255,255,0.06)" stroke-opacity="0.2" stroke-width="1.5" stroke-linecap="round"/>
<line x1="692" y1="494" x2="692" y2="455.7" stroke="rgba(255,255,255,0.06)" stroke-opacity="0.2" stroke-width="1.5" stroke-linecap="round"/>
<line x1="678" y1="494" x2="678" y2="461.2" stroke="rgba(255,255,255,0.06)" stroke-opacity="0.2" stroke-width="1.5" stroke-linecap="round"/>
<line x1="664" y1="494" x2="664" y2="467.8" stroke="rgba(255,255,255,0.06)" stroke-opacity="0.2" stroke-width="1.5" stroke-linecap="round"/>
<line x1="72" y1="530" x2="122.6" y2="510.9" stroke="#fbbf24" stroke-opacity="0.38" stroke-width="1" stroke-linecap="round"/>
<line x1="82" y1="536" x2="124.5" y2="520.0" stroke="#fbbf24" stroke-opacity="0.38" stroke-width="1" stroke-linecap="round"/>
<line x1="92" y1="542" x2="136.8" y2="525.1" stroke="#fbbf24" stroke-opacity="0.38" stroke-width="1" stroke-linecap="round"/>
<line x1="102" y1="548" x2="132.7" y2="536.4" stroke="#fbbf24" stroke-opacity="0.38" stroke-width="1" stroke-linecap="round"/>
<line x1="112" y1="554" x2="145.2" y2="541.5" stroke="#fbbf24" stroke-opacity="0.38" stroke-width="1" stroke-linecap="round"/>
<line x1="122" y1="560" x2="172.4" y2="541.0" stroke="#fbbf24" stroke-opacity="0.38" stroke-width="1" stroke-linecap="round"/>
</g>
<g id="signal-layers" opacity="0.92">
<line x1="515.1414111070335" y1="342.57597791962326" x2="541.0" y2="196.0" stroke="#a78bfa" stroke-opacity="0.07" stroke-width="1.5" stroke-linecap="round"/><ellipse cx="515.1414111070335" cy="342.57597791962326" rx="124" ry="50" fill="#a78bfa" opacity="0.05" transform="rotate(10 515.1414111070335 342.57597791962326)"/>
<line x1="200" y1="360.6733940169215" x2="286.5" y2="222.3" stroke="#a78bfa" stroke-opacity="0.11" stroke-width="1.5" stroke-linecap="round"/><circle cx="200" cy="360.6733940169215" r="48" fill="#a78bfa" opacity="0.16" transform="rotate(32 200 360.6733940169215)"/>
<line x1="420" y1="450.60187239199877" x2="545.0" y2="342.0" stroke="#a78bfa" stroke-opacity="0.11" stroke-width="1.5" stroke-linecap="round"/><line x1="420" y1="450.60187239199877" x2="546.8" y2="513.1" stroke="#a78bfa" stroke-opacity="0.32" stroke-width="2.5" stroke-linecap="round"/>
<line x1="153.16224955022335" y1="502" x2="208.6" y2="349.8" stroke="#a78bfa" stroke-opacity="0.17" stroke-width="1.5" stroke-linecap="round"/><line x1="153.16224955022335" y1="502" x2="330.8" y2="529.7" stroke="#a78bfa" stroke-opacity="0.50" stroke-width="2.5" stroke-linecap="round"/>
<line x1="400" y1="422" x2="305.2" y2="276.1" stroke="#a78bfa" stroke-opacity="0.22" stroke-width="1.5" stroke-linecap="round"/><line x1="400" y1="422" x2="570.3" y2="374.6" stroke="#a78bfa" stroke-opacity="0.64" stroke-width="2.5" stroke-linecap="round"/>
<line x1="210.60656191781163" y1="217.00452331453562" x2="221.2" y2="66.2" stroke="#a78bfa" stroke-opacity="0.16" stroke-width="1.5" stroke-linecap="round"/><circle cx="210.60656191781163" cy="217.00452331453562" r="44" fill="#a78bfa" opacity="0.23" transform="rotate(4 210.60656191781163 217.00452331453562)"/>
<line x1="382.2832177206874" y1="435.93845292925835" x2="431.9" y2="342.7" stroke="#a78bfa" stroke-opacity="0.10" stroke-width="1.5" stroke-linecap="round"/><circle cx="382.2832177206874" cy="435.93845292925835" r="31" fill="#a78bfa" opacity="0.14" transform="rotate(28 382.2832177206874 435.93845292925835)"/>
<line x1="518.7671048007905" y1="265.5108779296279" x2="527.1" y2="169.9" stroke="#a78bfa" stroke-opacity="0.08" stroke-width="1.5" stroke-linecap="round"/><circle cx="518.7671048007905" cy="265.5108779296279" r="28" fill="#a78bfa" opacity="0.12" transform="rotate(5 518.7671048007905 265.5108779296279)"/>
<line x1="630.0945880264044" y1="590.6806640699506" x2="688.4" y2="530.3" stroke="#a78bfa" stroke-opacity="0.07" stroke-width="1.5" stroke-linecap="round"/><circle cx="630.0945880264044" cy="590.6806640699506" r="25" fill="#a78bfa" opacity="0.10" transform="rotate(44 630.0945880264044 590.6806640699506)"/>
<line x1="535.2199384942651" y1="302.52199022099376" x2="664.8" y2="302.2" stroke="#a78bfa" stroke-opacity="0.21" stroke-width="1.5" stroke-linecap="round"/><line x1="535.2199384942651" y1="302.52199022099376" x2="535.6" y2="367.3" stroke="#a78bfa" stroke-opacity="0.59" stroke-width="2.5" stroke-linecap="round"/>
<line x1="309.6988163050264" y1="285.72110671550035" x2="424.0" y2="224.6" stroke="#a78bfa" stroke-opacity="0.21" stroke-width="1.5" stroke-linecap="round"/><line x1="309.6988163050264" y1="285.72110671550035" x2="381.1" y2="342.9" stroke="#a78bfa" stroke-opacity="0.59" stroke-width="2.5" stroke-linecap="round"/>
<line x1="310" y1="462" x2="392.9" y2="338.4" stroke="#a78bfa" stroke-opacity="0.27" stroke-width="1.5" stroke-linecap="round"/><line x1="310" y1="462" x2="454.2" y2="503.4" stroke="#a78bfa" stroke-opacity="0.76" stroke-width="2.5" stroke-linecap="round"/>
<line x1="400" y1="382" x2="406.8" y2="252.6" stroke="#a78bfa" stroke-opacity="0.20" stroke-width="1.5" stroke-linecap="round"/><circle cx="400" cy="382" r="38" fill="#a78bfa" opacity="0.28" transform="rotate(3 400 382)"/>
</g>
<g id="foreground" filter="url(#neonBloom)">
<polyline points="400.0,502 360.0,502 400.0,292.5 440.0,502" fill="none" stroke="#a78bfa" stroke-width="2.25" stroke-linejoin="miter" stroke-linecap="square"/>
<line x1="400.0" y1="502" x2="400.0" y2="520.0" stroke="#a78bfa" stroke-opacity="0.35" stroke-width="1.5"/>
<circle cx="310.0" cy="462.0" r="4" fill="none" stroke="#a78bfa" stroke-width="1.5"/>
<circle cx="432.9" cy="507.3" r="4" fill="none" stroke="#fbbf24" stroke-width="1.5" stroke-opacity="0.85"/>
<line x1="310.0" y1="462.0" x2="432.9" y2="507.3" stroke="rgba(255,255,255,0.06)" stroke-width="1"/>
</g>
</svg>