<svg xmlns="http://www.w3.org/2000/svg" viewBox="0 0 800 800" width="100%" height="100%" role="img" aria-label="Pythh Signal Art — layered abstract digital composition">
<defs>
<linearGradient id="void" x1="0" y1="0" x2="0" y2="1"><stop offset="0%" stop-color="#050508"/><stop offset="72%" stop-color="#0a0a0c"/><stop offset="100%" stop-color="#050508"/></linearGradient>
<linearGradient id="floorGlow" x1="0" y1="0" x2="0" y2="1"><stop offset="0%" stop-color="#fbbf24" stop-opacity="0"/><stop offset="100%" stop-color="#fbbf24" stop-opacity="0.09"/></linearGradient>
<filter id="neonBloom" x="-20%" y="-20%" width="140%" height="140%"><feGaussianBlur in="SourceGraphic" stdDeviation="2.2" result="blur"/><feMerge><feMergeNode in="blur"/><feMergeNode in="SourceGraphic"/></feMerge></filter>
</defs>
<g id="background">
<rect width="800" height="800" fill="#020204"/>
<circle cx="643.7" cy="6.0" r="1.06" fill="#fff" opacity="0.59"/>
<circle cx="593.8" cy="60.9" r="0.41" fill="#fff" opacity="0.36"/>
<circle cx="107.8" cy="85.7" r="0.62" fill="#fff" opacity="0.64"/>
<circle cx="213.3" cy="281.4" r="0.58" fill="#fff" opacity="0.79"/>
<circle cx="717.0" cy="446.9" r="1.07" fill="#fff" opacity="0.66"/>
<circle cx="155.3" cy="84.6" r="0.47" fill="#fff" opacity="0.65"/>
<circle cx="490.5" cy="84.1" r="0.86" fill="#fff" opacity="0.24"/>
<circle cx="322.4" cy="245.4" r="0.60" fill="#fff" opacity="0.35"/>
<circle cx="740.3" cy="542.4" r="0.75" fill="#fff" opacity="0.63"/>
<circle cx="728.7" cy="436.0" r="1.09" fill="#fff" opacity="0.76"/>
<circle cx="495.8" cy="459.6" r="0.82" fill="#fff" opacity="0.32"/>
<circle cx="470.1" cy="183.9" r="0.47" fill="#fff" opacity="0.76"/>
<circle cx="285.3" cy="761.0" r="0.98" fill="#fff" opacity="0.21"/>
<circle cx="573.2" cy="276.8" r="1.09" fill="#fff" opacity="0.13"/>
<circle cx="17.8" cy="413.4" r="1.30" fill="#fff" opacity="0.78"/>
<circle cx="552.8" cy="262.0" r="0.68" fill="#fff" opacity="0.52"/>
<circle cx="65.0" cy="3.7" r="0.91" fill="#fff" opacity="0.54"/>
<circle cx="545.4" cy="427.5" r="0.43" fill="#fff" opacity="0.42"/>
<circle cx="268.4" cy="99.3" r="0.77" fill="#fff" opacity="0.75"/>
<circle cx="787.8" cy="133.4" r="0.85" fill="#fff" opacity="0.51"/>
<circle cx="773.1" cy="765.4" r="0.78" fill="#fff" opacity="0.52"/>
<circle cx="68.9" cy="776.4" r="0.89" fill="#fff" opacity="0.16"/>
<circle cx="96.2" cy="168.0" r="0.70" fill="#fff" opacity="0.52"/>
<circle cx="267.3" cy="749.4" r="0.45" fill="#fff" opacity="0.80"/>
<circle cx="262.8" cy="14.2" r="0.96" fill="#fff" opacity="0.18"/>
<circle cx="589.3" cy="775.4" r="0.50" fill="#fff" opacity="0.14"/>
<circle cx="140.7" cy="253.5" r="0.85" fill="#fff" opacity="0.71"/>
<circle cx="389.2" cy="327.5" r="1.02" fill="#fff" opacity="0.78"/>
<circle cx="568.7" cy="462.0" r="0.65" fill="#fff" opacity="0.47"/>
<circle cx="87.3" cy="386.7" r="1.05" fill="#fff" opacity="0.57"/>
<circle cx="483.6" cy="68.6" r="0.87" fill="#fff" opacity="0.22"/>
<circle cx="575.3" cy="551.5" r="0.67" fill="#fff" opacity="0.51"/>
<circle cx="175.3" cy="744.4" r="0.86" fill="#fff" opacity="0.27"/>
<circle cx="183.5" cy="304.4" r="0.77" fill="#fff" opacity="0.56"/>
<circle cx="699.4" cy="168.4" r="1.07" fill="#fff" opacity="0.66"/>
<circle cx="441.4" cy="769.8" r="0.96" fill="#fff" opacity="0.67"/>
<circle cx="588.5" cy="329.8" r="0.63" fill="#fff" opacity="0.76"/>
<circle cx="731.7" cy="13.2" r="1.03" fill="#fff" opacity="0.51"/>
<circle cx="361.7" cy="164.9" r="0.75" fill="#fff" opacity="0.29"/>
<circle cx="507.4" cy="173.3" r="0.99" fill="#fff" opacity="0.54"/>
<circle cx="277.0" cy="420.4" r="0.87" fill="#fff" opacity="0.35"/>
<circle cx="475.3" cy="64.0" r="0.45" fill="#fff" opacity="0.13"/>
<circle cx="291.0" cy="542.3" r="1.01" fill="#fff" opacity="0.78"/>
<circle cx="751.8" cy="184.9" r="0.76" fill="#fff" opacity="0.62"/>
<circle cx="668.9" cy="518.7" r="0.81" fill="#fff" opacity="0.72"/>
<circle cx="613.2" cy="667.3" r="1.30" fill="#fff" opacity="0.71"/>
<circle cx="12.4" cy="313.9" r="0.92" fill="#fff" opacity="0.72"/>
<circle cx="243.3" cy="521.6" r="1.30" fill="#fff" opacity="0.25"/>
<circle cx="50.5" cy="229.9" r="0.98" fill="#fff" opacity="0.15"/>
<circle cx="195.2" cy="91.9" r="0.45" fill="#fff" opacity="0.19"/>
<circle cx="134.3" cy="598.5" r="0.95" fill="#fff" opacity="0.16"/>
<circle cx="101.3" cy="401.7" r="0.40" fill="#fff" opacity="0.76"/>
<circle cx="161.0" cy="328.0" r="0.60" fill="#fff" opacity="0.72"/>
<circle cx="335.5" cy="499.2" r="0.92" fill="#fff" opacity="0.50"/>
<circle cx="637.0" cy="535.1" r="0.85" fill="#fff" opacity="0.16"/>
<circle cx="606.5" cy="458.0" r="0.77" fill="#fff" opacity="0.75"/>
<circle cx="697.4" cy="775.3" r="1.05" fill="#fff" opacity="0.51"/>
<circle cx="625.3" cy="764.2" r="0.43" fill="#fff" opacity="0.73"/>
<circle cx="799.9" cy="513.3" r="1.05" fill="#fff" opacity="0.49"/>
<circle cx="431.1" cy="483.2" r="0.73" fill="#fff" opacity="0.55"/>
<circle cx="508.2" cy="138.7" r="0.75" fill="#fff" opacity="0.15"/>
<circle cx="433.6" cy="687.0" r="1.09" fill="#fff" opacity="0.16"/>
<circle cx="509.5" cy="614.9" r="0.75" fill="#fff" opacity="0.76"/>
<circle cx="345.9" cy="581.6" r="0.53" fill="#fff" opacity="0.58"/>
<circle cx="166.4" cy="551.1" r="0.81" fill="#fff" opacity="0.45"/>
<circle cx="652.3" cy="110.6" r="0.42" fill="#fff" opacity="0.41"/>
<circle cx="402.6" cy="611.2" r="0.77" fill="#fff" opacity="0.66"/>
<circle cx="55.2" cy="66.4" r="0.68" fill="#fff" opacity="0.31"/>
<circle cx="78.4" cy="704.9" r="0.53" fill="#fff" opacity="0.18"/>
<circle cx="430.5" cy="788.9" r="0.69" fill="#fff" opacity="0.27"/>
<circle cx="28.0" cy="318.3" r="0.86" fill="#fff" opacity="0.22"/>
<circle cx="121.8" cy="713.5" r="1.00" fill="#fff" opacity="0.34"/>
<circle cx="674.7" cy="60.9" r="0.68" fill="#fff" opacity="0.49"/>
<circle cx="48.7" cy="315.4" r="0.54" fill="#fff" opacity="0.61"/>
<circle cx="499.5" cy="273.4" r="0.72" fill="#fff" opacity="0.34"/>
<circle cx="468.6" cy="785.4" r="0.90" fill="#fff" opacity="0.39"/>
<circle cx="353.0" cy="713.2" r="0.47" fill="#fff" opacity="0.24"/>
<circle cx="309.6" cy="335.0" r="1.30" fill="#fff" opacity="0.29"/>
<circle cx="718.9" cy="351.2" r="0.89" fill="#fff" opacity="0.77"/>
<circle cx="652.8" cy="516.7" r="0.76" fill="#fff" opacity="0.69"/>
<circle cx="442.1" cy="479.1" r="0.68" fill="#fff" opacity="0.46"/>
<circle cx="36.5" cy="218.2" r="0.41" fill="#fff" opacity="0.29"/>
<circle cx="273.7" cy="602.9" r="0.50" fill="#fff" opacity="0.29"/>
<circle cx="208.8" cy="260.6" r="0.44" fill="#fff" opacity="0.32"/>
<circle cx="2.9" cy="154.1" r="1.00" fill="#fff" opacity="0.35"/>
<circle cx="72.2" cy="93.4" r="0.81" fill="#fff" opacity="0.63"/>
<circle cx="702.9" cy="95.9" r="0.68" fill="#fff" opacity="0.29"/>
<circle cx="538.3" cy="14.6" r="0.77" fill="#fff" opacity="0.69"/>
<circle cx="287.5" cy="489.8" r="0.96" fill="#fff" opacity="0.49"/>
<circle cx="358.1" cy="683.5" r="1.07" fill="#fff" opacity="0.18"/>
<circle cx="434.3" cy="242.7" r="0.86" fill="#fff" opacity="0.57"/>
<circle cx="429.5" cy="5.7" r="0.88" fill="#fff" opacity="0.64"/>
<circle cx="627.4" cy="509.3" r="0.77" fill="#fff" opacity="0.53"/>
<circle cx="322.8" cy="67.1" r="1.30" fill="#fff" opacity="0.27"/>
<circle cx="468.3" cy="234.2" r="0.64" fill="#fff" opacity="0.75"/>
<circle cx="757.4" cy="375.6" r="1.30" fill="#fff" opacity="0.44"/>
<circle cx="599.7" cy="15.7" r="0.50" fill="#fff" opacity="0.65"/>
<circle cx="526.3" cy="15.8" r="1.30" fill="#fff" opacity="0.28"/>
<circle cx="292.6" cy="450.2" r="1.10" fill="#fff" opacity="0.50"/>
<circle cx="752.6" cy="593.1" r="0.72" fill="#fff" opacity="0.21"/>
<circle cx="385.2" cy="381.4" r="0.41" fill="#fff" opacity="0.27"/>
<circle cx="155.2" cy="766.7" r="0.64" fill="#fff" opacity="0.76"/>
<circle cx="110.2" cy="279.9" r="0.86" fill="#fff" opacity="0.38"/>
<circle cx="415.8" cy="330.9" r="0.86" fill="#fff" opacity="0.13"/>
<circle cx="84.6" cy="187.2" r="1.07" fill="#fff" opacity="0.76"/>
<circle cx="185.1" cy="660.7" r="0.98" fill="#fff" opacity="0.66"/>
<circle cx="672.2" cy="136.3" r="0.68" fill="#fff" opacity="0.75"/>
<circle cx="743.1" cy="646.1" r="0.80" fill="#fff" opacity="0.22"/>
<circle cx="74.0" cy="771.5" r="0.98" fill="#fff" opacity="0.57"/>
<circle cx="667.4" cy="470.1" r="1.03" fill="#fff" opacity="0.25"/>
<circle cx="318.8" cy="91.0" r="0.65" fill="#fff" opacity="0.63"/>
<circle cx="88.0" cy="232.7" r="1.06" fill="#fff" opacity="0.74"/>
<circle cx="451.0" cy="345.0" r="0.90" fill="#fff" opacity="0.42"/>
<circle cx="766.0" cy="734.8" r="0.99" fill="#fff" opacity="0.45"/>
<circle cx="570.5" cy="100.0" r="0.47" fill="#fff" opacity="0.52"/>
<circle cx="762.8" cy="705.0" r="0.53" fill="#fff" opacity="0.46"/>
<circle cx="301.4" cy="683.2" r="0.53" fill="#fff" opacity="0.23"/>
<circle cx="307.9" cy="418.4" r="0.85" fill="#fff" opacity="0.64"/>
<circle cx="183.6" cy="450.9" r="0.89" fill="#fff" opacity="0.57"/>
<circle cx="626.1" cy="273.8" r="0.75" fill="#fff" opacity="0.49"/>
<circle cx="98.4" cy="244.6" r="0.91" fill="#fff" opacity="0.79"/>
<circle cx="66.3" cy="535.6" r="0.41" fill="#fff" opacity="0.84"/>
<circle cx="421.1" cy="624.8" r="0.41" fill="#fff" opacity="0.35"/>
<circle cx="171.6" cy="731.2" r="0.59" fill="#fff" opacity="0.26"/>
<circle cx="203.5" cy="385.2" r="0.89" fill="#fff" opacity="0.75"/>
<circle cx="236.7" cy="396.5" r="0.59" fill="#fff" opacity="0.44"/>
<circle cx="281.1" cy="308.6" r="1.00" fill="#fff" opacity="0.19"/>
<circle cx="800.0" cy="214.7" r="1.05" fill="#fff" opacity="0.77"/>
<circle cx="336.7" cy="749.0" r="1.08" fill="#fff" opacity="0.57"/>
<circle cx="411.7" cy="590.5" r="1.01" fill="#fff" opacity="0.13"/>
<circle cx="317.6" cy="704.3" r="1.03" fill="#fff" opacity="0.72"/>
<circle cx="160.8" cy="495.7" r="0.79" fill="#fff" opacity="0.50"/>
<circle cx="304.8" cy="666.2" r="0.98" fill="#fff" opacity="0.46"/>
<circle cx="748.0" cy="258.0" r="0.63" fill="#fff" opacity="0.34"/>
<circle cx="581.7" cy="315.0" r="0.61" fill="#fff" opacity="0.81"/>
<circle cx="531.0" cy="6.5" r="1.30" fill="#fff" opacity="0.42"/>
<circle cx="181.7" cy="387.8" r="1.07" fill="#fff" opacity="0.71"/>
<circle cx="694.5" cy="456.8" r="0.75" fill="#fff" opacity="0.21"/>
<circle cx="618.7" cy="345.8" r="0.98" fill="#fff" opacity="0.50"/>
<circle cx="741.0" cy="278.7" r="0.45" fill="#fff" opacity="0.41"/>
<ellipse cx="294" cy="525" rx="98" ry="30" fill="#a855f7" opacity="0.05"/>
<ellipse cx="342" cy="649" rx="70" ry="39" fill="#a855f7" opacity="0.03"/>
<ellipse cx="639" cy="205" rx="111" ry="46" fill="#a855f7" opacity="0.02"/>
<ellipse cx="255.0" cy="375.0" rx="130.5" ry="69.0" fill="none" stroke="#dc2626" stroke-opacity="0.65" stroke-width="3.1" transform="rotate(-42.5 255.0 375.0)"/>
<ellipse cx="255.0" cy="375.0" rx="120.7" ry="60.3" fill="none" stroke="#dc2626" stroke-opacity="0.60" stroke-width="2.9" transform="rotate(32.2 255.0 375.0)"/>
<ellipse cx="255.0" cy="375.0" rx="115.9" ry="50.7" fill="none" stroke="#f97316" stroke-opacity="0.54" stroke-width="2.6" transform="rotate(-2.6 255.0 375.0)"/>
<ellipse cx="255.0" cy="375.0" rx="97.9" ry="48.4" fill="none" stroke="#fde047" stroke-opacity="0.48" stroke-width="2.4" transform="rotate(56.1 255.0 375.0)"/>
<ellipse cx="255.0" cy="375.0" rx="84.0" ry="48.9" fill="none" stroke="#a78bfa" stroke-opacity="0.43" stroke-width="2.1" transform="rotate(-25.7 255.0 375.0)"/>
<ellipse cx="255.0" cy="375.0" rx="80.6" ry="44.6" fill="none" stroke="#fb923c" stroke-opacity="0.38" stroke-width="1.9" transform="rotate(36.8 255.0 375.0)"/>
<ellipse cx="255.0" cy="375.0" rx="76.7" ry="35.3" fill="none" stroke="#fb923c" stroke-opacity="0.32" stroke-width="1.7" transform="rotate(-17.2 255.0 375.0)"/>
<ellipse cx="255.0" cy="375.0" rx="59.8" ry="26.9" fill="none" stroke="#fbbf24" stroke-opacity="0.27" stroke-width="1.4" transform="rotate(50.0 255.0 375.0)"/>
<ellipse cx="255.0" cy="375.0" rx="49.4" ry="27.7" fill="none" stroke="#93c5fd" stroke-opacity="0.21" stroke-width="1.2" transform="rotate(-37.1 255.0 375.0)"/>
<ellipse cx="255.0" cy="375.0" rx="36.7" ry="21.4" fill="none" stroke="#60a5fa" stroke-opacity="0.16" stroke-width="0.9" transform="rotate(57.8 255.0 375.0)"/>
<circle cx="255.0" cy="375.0" r="35.8" fill="#60a5fa" opacity="0.32"/>
<circle cx="255.0" cy="375.0" r="17.9" fill="#e0f2fe" opacity="0.82"/>
<circle cx="255.0" cy="375.0" r="7.3" fill="#ffffff" opacity="1"/>
<line x1="42.2" y1="375.0" x2="467.8" y2="375.0" stroke="#fff" stroke-opacity="0.6" stroke-width="1.2" stroke-linecap="round"/>
<line x1="138.0" y1="375.0" x2="372.0" y2="375.0" stroke="#93c5fd" stroke-opacity="0.38" stroke-width="3.6" stroke-linecap="round"/>
<ellipse cx="545.0" cy="415.0" rx="108.2" ry="51.2" fill="none" stroke="#dc2626" stroke-opacity="0.65" stroke-width="3.1" transform="rotate(-47.9 545.0 415.0)"/>
<ellipse cx="545.0" cy="415.0" rx="93.1" ry="47.8" fill="none" stroke="#dc2626" stroke-opacity="0.60" stroke-width="2.9" transform="rotate(20.5 545.0 415.0)"/>
<ellipse cx="545.0" cy="415.0" rx="83.5" ry="47.0" fill="none" stroke="#f97316" stroke-opacity="0.54" stroke-width="2.6" transform="rotate(7.8 545.0 415.0)"/>
<ellipse cx="545.0" cy="415.0" rx="84.1" ry="37.8" fill="none" stroke="#fde047" stroke-opacity="0.48" stroke-width="2.4" transform="rotate(26.5 545.0 415.0)"/>
<ellipse cx="545.0" cy="415.0" rx="76.9" ry="35.7" fill="none" stroke="#a78bfa" stroke-opacity="0.43" stroke-width="2.1" transform="rotate(-14.2 545.0 415.0)"/>
<ellipse cx="545.0" cy="415.0" rx="68.2" ry="33.6" fill="none" stroke="#fb923c" stroke-opacity="0.38" stroke-width="1.9" transform="rotate(53.5 545.0 415.0)"/>
<ellipse cx="545.0" cy="415.0" rx="52.8" ry="29.7" fill="none" stroke="#fb923c" stroke-opacity="0.32" stroke-width="1.7" transform="rotate(-51.5 545.0 415.0)"/>
<ellipse cx="545.0" cy="415.0" rx="40.3" ry="22.2" fill="none" stroke="#fbbf24" stroke-opacity="0.27" stroke-width="1.4" transform="rotate(28.3 545.0 415.0)"/>
<ellipse cx="545.0" cy="415.0" rx="41.6" ry="16.7" fill="none" stroke="#93c5fd" stroke-opacity="0.21" stroke-width="1.2" transform="rotate(-34.9 545.0 415.0)"/>
<ellipse cx="545.0" cy="415.0" rx="27.8" ry="21.2" fill="none" stroke="#60a5fa" stroke-opacity="0.16" stroke-width="0.9" transform="rotate(43.8 545.0 415.0)"/>
<circle cx="545.0" cy="415.0" r="28.2" fill="#60a5fa" opacity="0.32"/>
<circle cx="545.0" cy="415.0" r="14.1" fill="#e0f2fe" opacity="0.82"/>
<circle cx="545.0" cy="415.0" r="5.7" fill="#ffffff" opacity="1"/>
<line x1="377.8" y1="415.0" x2="712.2" y2="415.0" stroke="#fff" stroke-opacity="0.6" stroke-width="1.0" stroke-linecap="round"/>
<line x1="453.0" y1="415.0" x2="637.0" y2="415.0" stroke="#93c5fd" stroke-opacity="0.38" stroke-width="2.8" stroke-linecap="round"/>
<path d="M 310 370 Q 400 320 490 410" fill="none" stroke="#a78bfa" stroke-opacity="0.14" stroke-width="1.5" stroke-linecap="round"/>
<path d="M 330 395 Q 400 360 470 425" fill="none" stroke="#fbbf24" stroke-opacity="0.08" stroke-width="2" stroke-linecap="round"/>
</g>
<g id="signal-layers" opacity="0.92">
<line x1="481.06412975117564" y1="265.51379043608904" x2="494.7" y2="420.9" stroke="#a78bfa" stroke-opacity="0.08" stroke-width="1.5" stroke-linecap="round"/><ellipse cx="481.06412975117564" cy="265.51379043608904" rx="130" ry="52" fill="#a78bfa" opacity="0.06" transform="rotate(175 481.06412975117564 265.51379043608904)"/>
<line x1="200" y1="337.41556964814663" x2="194.3" y2="174.3" stroke="#a78bfa" stroke-opacity="0.11" stroke-width="1.5" stroke-linecap="round"/><circle cx="200" cy="337.41556964814663" r="48" fill="#a78bfa" opacity="0.16" transform="rotate(-2 200 337.41556964814663)"/>
<line x1="420" y1="359.7659022733569" x2="422.9" y2="194.2" stroke="#a78bfa" stroke-opacity="0.11" stroke-width="1.5" stroke-linecap="round"/><line x1="420" y1="359.7659022733569" x2="613.2" y2="361.2" stroke="#a78bfa" stroke-opacity="0.32" stroke-width="2.5" stroke-linecap="round"/>
<line x1="201.8137274775654" y1="502" x2="257.2" y2="349.8" stroke="#a78bfa" stroke-opacity="0.17" stroke-width="1.5" stroke-linecap="round"/><line x1="201.8137274775654" y1="502" x2="379.4" y2="529.7" stroke="#a78bfa" stroke-opacity="0.50" stroke-width="2.5" stroke-linecap="round"/>
<line x1="400" y1="422" x2="333.5" y2="257.3" stroke="#a78bfa" stroke-opacity="0.23" stroke-width="1.5" stroke-linecap="round"/><line x1="400" y1="422" x2="592.1" y2="388.7" stroke="#a78bfa" stroke-opacity="0.67" stroke-width="2.5" stroke-linecap="round"/>
<line x1="642.3924338258803" y1="510.2667995169759" x2="690.4" y2="370.7" stroke="#a78bfa" stroke-opacity="0.16" stroke-width="1.5" stroke-linecap="round"/><circle cx="642.3924338258803" cy="510.2667995169759" r="43" fill="#a78bfa" opacity="0.23" transform="rotate(19 642.3924338258803 510.2667995169759)"/>
<line x1="340.8597738854587" y1="160.54968480020761" x2="413.4" y2="85.5" stroke="#a78bfa" stroke-opacity="0.10" stroke-width="1.5" stroke-linecap="round"/><ellipse cx="340.8597738854587" cy="160.54968480020761" rx="139.2" ry="74.0" fill="none" stroke="#a78bfa" stroke-opacity="0.28" stroke-width="2.5" transform="rotate(29 340.8597738854587 160.54968480020761)"/><ellipse cx="340.8597738854587" cy="160.54968480020761" rx="115.3" ry="62.0" fill="none" stroke="#a78bfa" stroke-opacity="0.24" stroke-width="2.1" transform="rotate(64 340.8597738854587 160.54968480020761)"/><ellipse cx="340.8597738854587" cy="160.54968480020761" rx="91.4" ry="50.0" fill="none" stroke="#a78bfa" stroke-opacity="0.20" stroke-width="1.8" transform="rotate(29 340.8597738854587 160.54968480020761)"/><ellipse cx="340.8597738854587" cy="160.54968480020761" rx="67.4" ry="38.1" fill="none" stroke="#a78bfa" stroke-opacity="0.15" stroke-width="1.4" transform="rotate(64 340.8597738854587 160.54968480020761)"/><circle cx="340.8597738854587" cy="160.54968480020761" r="10" fill="#fff" opacity="0.25"/>
<line x1="589.9703375250101" y1="445.2486438304186" x2="588.2" y2="344.5" stroke="#a78bfa" stroke-opacity="0.09" stroke-width="1.5" stroke-linecap="round"/><circle cx="589.9703375250101" cy="445.2486438304186" r="29" fill="#a78bfa" opacity="0.13" transform="rotate(-1 589.9703375250101 445.2486438304186)"/>
<line x1="402.3721196502447" y1="492.4230257421732" x2="380.3" y2="403.9" stroke="#a78bfa" stroke-opacity="0.08" stroke-width="1.5" stroke-linecap="round"/><circle cx="402.3721196502447" cy="492.4230257421732" r="27" fill="#a78bfa" opacity="0.11" transform="rotate(-14 402.3721196502447 492.4230257421732)"/>
<line x1="333.4752629045397" y1="260.3068693354726" x2="463.1" y2="258.9" stroke="#a78bfa" stroke-opacity="0.21" stroke-width="1.5" stroke-linecap="round"/><line x1="333.4752629045397" y1="260.3068693354726" x2="335.1" y2="325.1" stroke="#a78bfa" stroke-opacity="0.59" stroke-width="2.5" stroke-linecap="round"/>
<line x1="368.9709569700062" y1="358.2039869297296" x2="482.7" y2="296.1" stroke="#a78bfa" stroke-opacity="0.21" stroke-width="1.5" stroke-linecap="round"/><line x1="368.9709569700062" y1="358.2039869297296" x2="441.4" y2="415.1" stroke="#a78bfa" stroke-opacity="0.59" stroke-width="2.5" stroke-linecap="round"/>
<line x1="310" y1="462" x2="391.9" y2="337.7" stroke="#a78bfa" stroke-opacity="0.27" stroke-width="1.5" stroke-linecap="round"/><line x1="310" y1="462" x2="455.0" y2="502.9" stroke="#a78bfa" stroke-opacity="0.76" stroke-width="2.5" stroke-linecap="round"/>
<line x1="400" y1="382" x2="357.8" y2="259.5" stroke="#a78bfa" stroke-opacity="0.20" stroke-width="1.5" stroke-linecap="round"/><circle cx="400" cy="382" r="38" fill="#a78bfa" opacity="0.28" transform="rotate(-19 400 382)"/>
</g>
<g id="foreground" filter="url(#neonBloom)">
</g>
</svg>