<svg xmlns="http://www.w3.org/2000/svg" viewBox="0 0 800 800" width="100%" height="100%" role="img" aria-label="Pythh Signal Art — layered abstract digital composition">
<defs>
<linearGradient id="void" x1="0" y1="0" x2="0" y2="1"><stop offset="0%" stop-color="#050508"/><stop offset="72%" stop-color="#0a0a0c"/><stop offset="100%" stop-color="#050508"/></linearGradient>
<linearGradient id="floorGlow" x1="0" y1="0" x2="0" y2="1"><stop offset="0%" stop-color="#fbbf24" stop-opacity="0"/><stop offset="100%" stop-color="#fbbf24" stop-opacity="0.09"/></linearGradient>
<filter id="neonBloom" x="-20%" y="-20%" width="140%" height="140%"><feGaussianBlur in="SourceGraphic" stdDeviation="2.2" result="blur"/><feMerge><feMergeNode in="blur"/><feMergeNode in="SourceGraphic"/></feMerge></filter>
</defs>
<g id="background">
<rect width="800" height="800" fill="url(#void)"/>
<line x1="100" y1="800" x2="93" y2="100" stroke="#a78bfa" stroke-opacity="0.11" stroke-width="2" stroke-linecap="round"/>
<line x1="230" y1="800" x2="232" y2="100" stroke="#a78bfa" stroke-opacity="0.13" stroke-width="2" stroke-linecap="round"/>
<line x1="360" y1="800" x2="367" y2="100" stroke="#a78bfa" stroke-opacity="0.11" stroke-width="2" stroke-linecap="round"/>
<line x1="490" y1="800" x2="472" y2="100" stroke="#a78bfa" stroke-opacity="0.14" stroke-width="2" stroke-linecap="round"/>
<line x1="620" y1="800" x2="597" y2="100" stroke="#a78bfa" stroke-opacity="0.12" stroke-width="2" stroke-linecap="round"/>
<rect x="0" y="502" width="800" height="298" fill="url(#floorGlow)"/>
<line x1="48" y1="502" x2="752" y2="502" stroke="rgba(255,255,255,0.06)" stroke-width="1"/>
<circle cx="400" cy="542" r="352" fill="none" stroke="rgba(255,255,255,0.03)" stroke-width="1"/>
</g>
<g id="midground">
<path d="M 183.0 717.4 A 292 292 0 1 1 617.0 717.4" fill="none" stroke="#a78bfa" stroke-opacity="0.22" stroke-width="1.5" stroke-linecap="round"/>
<path d="M 178.3 650.0 A 256 256 0 1 1 621.7 650.0" fill="none" stroke="rgba(255,255,255,0.06)" stroke-width="1" stroke-linecap="round"/>
<line x1="720" y1="494" x2="720" y2="426.0" stroke="#a78bfa" stroke-opacity="0.45" stroke-width="1.5" stroke-linecap="round"/>
<line x1="706" y1="494" x2="706" y2="430.9" stroke="rgba(255,255,255,0.06)" stroke-opacity="0.2" stroke-width="1.5" stroke-linecap="round"/>
<line x1="692" y1="494" x2="692" y2="455.1" stroke="rgba(255,255,255,0.06)" stroke-opacity="0.2" stroke-width="1.5" stroke-linecap="round"/>
<line x1="678" y1="494" x2="678" y2="460.6" stroke="rgba(255,255,255,0.06)" stroke-opacity="0.2" stroke-width="1.5" stroke-linecap="round"/>
<line x1="664" y1="494" x2="664" y2="467.8" stroke="rgba(255,255,255,0.06)" stroke-opacity="0.2" stroke-width="1.5" stroke-linecap="round"/>
<line x1="72" y1="530" x2="114.9" y2="513.8" stroke="#fbbf24" stroke-opacity="0.38" stroke-width="1" stroke-linecap="round"/>
<line x1="82" y1="536" x2="131.9" y2="517.2" stroke="#fbbf24" stroke-opacity="0.38" stroke-width="1" stroke-linecap="round"/>
<line x1="92" y1="542" x2="125.0" y2="529.6" stroke="#fbbf24" stroke-opacity="0.38" stroke-width="1" stroke-linecap="round"/>
<line x1="102" y1="548" x2="156.4" y2="527.5" stroke="#fbbf24" stroke-opacity="0.38" stroke-width="1" stroke-linecap="round"/>
<line x1="112" y1="554" x2="160.4" y2="535.8" stroke="#fbbf24" stroke-opacity="0.38" stroke-width="1" stroke-linecap="round"/>
<line x1="122" y1="560" x2="161.1" y2="545.3" stroke="#fbbf24" stroke-opacity="0.38" stroke-width="1" stroke-linecap="round"/>
</g>
<g id="signal-layers" opacity="0.92">
<line x1="504.4900378584862" y1="451.73728227615356" x2="674.0" y2="424.9" stroke="#a78bfa" stroke-opacity="0.06" stroke-width="1.5" stroke-linecap="round"/><ellipse cx="504.4900378584862" cy="451.73728227615356" rx="143" ry="57" fill="#a78bfa" opacity="0.04" transform="rotate(81 504.4900378584862 451.73728227615356)"/>
<line x1="200" y1="301.6056553274393" x2="191.9" y2="147.0" stroke="#a78bfa" stroke-opacity="0.11" stroke-width="1.5" stroke-linecap="round"/><circle cx="200" cy="301.6056553274393" r="45" fill="#a78bfa" opacity="0.16" transform="rotate(-3 200 301.6056553274393)"/>
<line x1="420" y1="345.80389726907015" x2="480.5" y2="203.3" stroke="#a78bfa" stroke-opacity="0.11" stroke-width="1.5" stroke-linecap="round"/><line x1="420" y1="345.80389726907015" x2="586.2" y2="376.0" stroke="#a78bfa" stroke-opacity="0.32" stroke-width="2.5" stroke-linecap="round"/>
<line x1="101.43396630883217" y1="502" x2="112.7" y2="340.4" stroke="#a78bfa" stroke-opacity="0.17" stroke-width="1.5" stroke-linecap="round"/><line x1="101.43396630883217" y1="502" x2="290.0" y2="507.7" stroke="#a78bfa" stroke-opacity="0.50" stroke-width="2.5" stroke-linecap="round"/>
<line x1="400" y1="422" x2="363.8" y2="251.8" stroke="#a78bfa" stroke-opacity="0.22" stroke-width="1.5" stroke-linecap="round"/><line x1="400" y1="422" x2="598.6" y2="403.9" stroke="#a78bfa" stroke-opacity="0.64" stroke-width="2.5" stroke-linecap="round"/>
<line x1="608.8242289982736" y1="461.90430104732513" x2="655.2" y2="319.2" stroke="#a78bfa" stroke-opacity="0.16" stroke-width="1.5" stroke-linecap="round"/><circle cx="608.8242289982736" cy="461.90430104732513" r="44" fill="#a78bfa" opacity="0.23" transform="rotate(18 608.8242289982736 461.90430104732513)"/>
<line x1="489.3378342501819" y1="228.12555387616158" x2="568.7" y2="156.7" stroke="#a78bfa" stroke-opacity="0.10" stroke-width="1.5" stroke-linecap="round"/><circle cx="489.3378342501819" cy="228.12555387616158" r="31" fill="#a78bfa" opacity="0.14" transform="rotate(48 489.3378342501819 228.12555387616158)"/>
<line x1="658.1844090856612" y1="455.78363832086325" x2="665.0" y2="358.8" stroke="#a78bfa" stroke-opacity="0.09" stroke-width="1.5" stroke-linecap="round"/><circle cx="658.1844090856612" cy="455.78363832086325" r="28" fill="#a78bfa" opacity="0.13" transform="rotate(4 658.1844090856612 455.78363832086325)"/>
<line x1="469.341905284673" y1="587.6400872319937" x2="426.1" y2="515.6" stroke="#a78bfa" stroke-opacity="0.07" stroke-width="1.5" stroke-linecap="round"/><circle cx="469.341905284673" cy="587.6400872319937" r="25" fill="#a78bfa" opacity="0.10" transform="rotate(-31 469.341905284673 587.6400872319937)"/>
<line x1="516.0762215033174" y1="432.11270625703037" x2="645.6" y2="437.7" stroke="#a78bfa" stroke-opacity="0.21" stroke-width="1.5" stroke-linecap="round"/><line x1="516.0762215033174" y1="432.11270625703037" x2="509.6" y2="496.9" stroke="#a78bfa" stroke-opacity="0.59" stroke-width="2.5" stroke-linecap="round"/>
<line x1="322.36418212763965" y1="286.19350160472095" x2="439.3" y2="230.3" stroke="#a78bfa" stroke-opacity="0.21" stroke-width="1.5" stroke-linecap="round"/><line x1="322.36418212763965" y1="286.19350160472095" x2="387.5" y2="344.7" stroke="#a78bfa" stroke-opacity="0.59" stroke-width="2.5" stroke-linecap="round"/>
<line x1="310" y1="462" x2="398.4" y2="342.3" stroke="#a78bfa" stroke-opacity="0.27" stroke-width="1.5" stroke-linecap="round"/><line x1="310" y1="462" x2="449.6" y2="506.2" stroke="#a78bfa" stroke-opacity="0.76" stroke-width="2.5" stroke-linecap="round"/>
<line x1="400" y1="382" x2="402.3" y2="252.4" stroke="#a78bfa" stroke-opacity="0.20" stroke-width="1.5" stroke-linecap="round"/><circle cx="400" cy="382" r="38" fill="#a78bfa" opacity="0.28" transform="rotate(1 400 382)"/>
</g>
<g id="foreground" filter="url(#neonBloom)">
<polyline points="400.0,502 360.0,502 400.0,292.5 440.0,502" fill="none" stroke="#a78bfa" stroke-width="2.25" stroke-linejoin="miter" stroke-linecap="square"/>
<line x1="400.0" y1="502" x2="400.0" y2="520.0" stroke="#a78bfa" stroke-opacity="0.35" stroke-width="1.5"/>
<circle cx="310.0" cy="462.0" r="4" fill="none" stroke="#a78bfa" stroke-width="1.5"/>
<circle cx="429.0" cy="510.4" r="4" fill="none" stroke="#fbbf24" stroke-width="1.5" stroke-opacity="0.85"/>
<line x1="310.0" y1="462.0" x2="429.0" y2="510.4" stroke="rgba(255,255,255,0.06)" stroke-width="1"/>
</g>
</svg>