<svg xmlns="http://www.w3.org/2000/svg" viewBox="0 0 800 800" width="100%" height="100%" role="img" aria-label="Pythh Signal Art — layered abstract digital composition">
<defs>
<linearGradient id="void" x1="0" y1="0" x2="0" y2="1"><stop offset="0%" stop-color="#050508"/><stop offset="72%" stop-color="#0a0a0c"/><stop offset="100%" stop-color="#050508"/></linearGradient>
<linearGradient id="floorGlow" x1="0" y1="0" x2="0" y2="1"><stop offset="0%" stop-color="#fbbf24" stop-opacity="0"/><stop offset="100%" stop-color="#fbbf24" stop-opacity="0.09"/></linearGradient>
<filter id="neonBloom" x="-20%" y="-20%" width="140%" height="140%"><feGaussianBlur in="SourceGraphic" stdDeviation="2.2" result="blur"/><feMerge><feMergeNode in="blur"/><feMergeNode in="SourceGraphic"/></feMerge></filter>
</defs>
<g id="background">
<rect width="800" height="800" fill="url(#void)"/>
<line x1="0" y1="90" x2="800" y2="108" stroke="#a78bfa" stroke-opacity="0.06" stroke-width="1"/>
<line x1="0" y1="185" x2="800" y2="201" stroke="#a78bfa" stroke-opacity="0.06" stroke-width="1"/>
<line x1="0" y1="280" x2="800" y2="294" stroke="#a78bfa" stroke-opacity="0.06" stroke-width="1"/>
<line x1="0" y1="375" x2="800" y2="387" stroke="#a78bfa" stroke-opacity="0.06" stroke-width="1"/>
<line x1="0" y1="470" x2="800" y2="480" stroke="#a78bfa" stroke-opacity="0.06" stroke-width="1"/>
<line x1="0" y1="565" x2="800" y2="573" stroke="#a78bfa" stroke-opacity="0.06" stroke-width="1"/>
<line x1="0" y1="660" x2="800" y2="666" stroke="#a78bfa" stroke-opacity="0.06" stroke-width="1"/>
<rect x="0" y="502" width="800" height="298" fill="url(#floorGlow)"/>
<line x1="48" y1="502" x2="752" y2="502" stroke="rgba(255,255,255,0.06)" stroke-width="1"/>
<circle cx="400" cy="542" r="352" fill="none" stroke="rgba(255,255,255,0.03)" stroke-width="1"/>
</g>
<g id="midground">
<path d="M 183.0 717.4 A 292 292 0 1 1 617.0 717.4" fill="none" stroke="#a78bfa" stroke-opacity="0.22" stroke-width="1.5" stroke-linecap="round"/>
<path d="M 178.3 650.0 A 256 256 0 1 1 621.7 650.0" fill="none" stroke="rgba(255,255,255,0.06)" stroke-width="1" stroke-linecap="round"/>
<line x1="720" y1="494" x2="720" y2="426.0" stroke="#a78bfa" stroke-opacity="0.45" stroke-width="1.5" stroke-linecap="round"/>
<line x1="706" y1="494" x2="706" y2="430.9" stroke="rgba(255,255,255,0.06)" stroke-opacity="0.2" stroke-width="1.5" stroke-linecap="round"/>
<line x1="692" y1="494" x2="692" y2="455.1" stroke="rgba(255,255,255,0.06)" stroke-opacity="0.2" stroke-width="1.5" stroke-linecap="round"/>
<line x1="678" y1="494" x2="678" y2="460.6" stroke="rgba(255,255,255,0.06)" stroke-opacity="0.2" stroke-width="1.5" stroke-linecap="round"/>
<line x1="664" y1="494" x2="664" y2="467.8" stroke="rgba(255,255,255,0.06)" stroke-opacity="0.2" stroke-width="1.5" stroke-linecap="round"/>
<line x1="72" y1="530" x2="125.2" y2="510.0" stroke="#fbbf24" stroke-opacity="0.38" stroke-width="1" stroke-linecap="round"/>
<line x1="82" y1="536" x2="128.0" y2="518.7" stroke="#fbbf24" stroke-opacity="0.38" stroke-width="1" stroke-linecap="round"/>
<line x1="92" y1="542" x2="142.9" y2="522.9" stroke="#fbbf24" stroke-opacity="0.38" stroke-width="1" stroke-linecap="round"/>
<line x1="102" y1="548" x2="135.6" y2="535.4" stroke="#fbbf24" stroke-opacity="0.38" stroke-width="1" stroke-linecap="round"/>
<line x1="112" y1="554" x2="165.1" y2="534.0" stroke="#fbbf24" stroke-opacity="0.38" stroke-width="1" stroke-linecap="round"/>
<line x1="122" y1="560" x2="152.6" y2="548.5" stroke="#fbbf24" stroke-opacity="0.38" stroke-width="1" stroke-linecap="round"/>
</g>
<g id="signal-layers" opacity="0.92">
<line x1="348.67380859330297" y1="301.3257629610598" x2="434.5" y2="163.9" stroke="#a78bfa" stroke-opacity="0.06" stroke-width="1.5" stroke-linecap="round"/><ellipse cx="348.67380859330297" cy="301.3257629610598" rx="135" ry="54" fill="#a78bfa" opacity="0.04" transform="rotate(32 348.67380859330297 301.3257629610598)"/>
<line x1="200" y1="320.4721472039819" x2="258.0" y2="176.9" stroke="#a78bfa" stroke-opacity="0.11" stroke-width="1.5" stroke-linecap="round"/><circle cx="200" cy="320.4721472039819" r="45" fill="#a78bfa" opacity="0.16" transform="rotate(22 200 320.4721472039819)"/>
<line x1="420" y1="329.6776916459203" x2="335.7" y2="199.9" stroke="#a78bfa" stroke-opacity="0.11" stroke-width="1.5" stroke-linecap="round"/><line x1="420" y1="329.6776916459203" x2="571.5" y2="287.5" stroke="#a78bfa" stroke-opacity="0.32" stroke-width="2.5" stroke-linecap="round"/>
<line x1="299.05964960344136" y1="502" x2="249.0" y2="347.9" stroke="#a78bfa" stroke-opacity="0.17" stroke-width="1.5" stroke-linecap="round"/><line x1="299.05964960344136" y1="502" x2="478.8" y2="477.0" stroke="#a78bfa" stroke-opacity="0.50" stroke-width="2.5" stroke-linecap="round"/>
<line x1="400" y1="422" x2="479.0" y2="267.0" stroke="#a78bfa" stroke-opacity="0.22" stroke-width="1.5" stroke-linecap="round"/><line x1="400" y1="422" x2="580.9" y2="461.5" stroke="#a78bfa" stroke-opacity="0.64" stroke-width="2.5" stroke-linecap="round"/>
<line x1="622.3325695842505" y1="610.3633566573262" x2="520.0" y2="500.7" stroke="#a78bfa" stroke-opacity="0.16" stroke-width="1.5" stroke-linecap="round"/><circle cx="622.3325695842505" cy="610.3633566573262" r="44" fill="#a78bfa" opacity="0.23" transform="rotate(-43 622.3325695842505 610.3633566573262)"/>
<line x1="503.09636192396283" y1="239.3019052222371" x2="518.0" y2="133.5" stroke="#a78bfa" stroke-opacity="0.10" stroke-width="1.5" stroke-linecap="round"/><circle cx="503.09636192396283" cy="239.3019052222371" r="31" fill="#a78bfa" opacity="0.14" transform="rotate(8 503.09636192396283 239.3019052222371)"/>
<line x1="420.1013923063874" y1="232.8589327260852" x2="458.1" y2="143.4" stroke="#a78bfa" stroke-opacity="0.09" stroke-width="1.5" stroke-linecap="round"/><circle cx="420.1013923063874" cy="232.8589327260852" r="28" fill="#a78bfa" opacity="0.13" transform="rotate(23 420.1013923063874 232.8589327260852)"/>
<line x1="324.67528101056814" y1="238.32515589892864" x2="308.6" y2="155.9" stroke="#a78bfa" stroke-opacity="0.07" stroke-width="1.5" stroke-linecap="round"/><circle cx="324.67528101056814" cy="238.32515589892864" r="25" fill="#a78bfa" opacity="0.10" transform="rotate(-11 324.67528101056814 238.32515589892864)"/>
<line x1="572.9283687379211" y1="162.30902640148997" x2="702.0" y2="173.5" stroke="#a78bfa" stroke-opacity="0.21" stroke-width="1.5" stroke-linecap="round"/><line x1="572.9283687379211" y1="162.30902640148997" x2="559.9" y2="226.9" stroke="#a78bfa" stroke-opacity="0.59" stroke-width="2.5" stroke-linecap="round"/>
<line x1="187.35033679753542" y1="324.12320530973375" x2="306.6" y2="273.4" stroke="#a78bfa" stroke-opacity="0.21" stroke-width="1.5" stroke-linecap="round"/><line x1="187.35033679753542" y1="324.12320530973375" x2="246.5" y2="383.8" stroke="#a78bfa" stroke-opacity="0.59" stroke-width="2.5" stroke-linecap="round"/>
<line x1="310" y1="462" x2="403.6" y2="346.3" stroke="#a78bfa" stroke-opacity="0.27" stroke-width="1.5" stroke-linecap="round"/><line x1="310" y1="462" x2="445.0" y2="508.8" stroke="#a78bfa" stroke-opacity="0.76" stroke-width="2.5" stroke-linecap="round"/>
<line x1="400" y1="382" x2="373.1" y2="255.2" stroke="#a78bfa" stroke-opacity="0.20" stroke-width="1.5" stroke-linecap="round"/><circle cx="400" cy="382" r="38" fill="#a78bfa" opacity="0.28" transform="rotate(-12 400 382)"/>
</g>
<g id="foreground" filter="url(#neonBloom)">
</g>
</svg>