<svg xmlns="http://www.w3.org/2000/svg" viewBox="0 0 800 800" width="100%" height="100%" role="img" aria-label="Pythh Signal Art — layered abstract digital composition">
<defs>
<linearGradient id="void" x1="0" y1="0" x2="0" y2="1"><stop offset="0%" stop-color="#050508"/><stop offset="72%" stop-color="#0a0a0c"/><stop offset="100%" stop-color="#050508"/></linearGradient>
<linearGradient id="floorGlow" x1="0" y1="0" x2="0" y2="1"><stop offset="0%" stop-color="#fbbf24" stop-opacity="0"/><stop offset="100%" stop-color="#fbbf24" stop-opacity="0.09"/></linearGradient>
<filter id="neonBloom" x="-20%" y="-20%" width="140%" height="140%"><feGaussianBlur in="SourceGraphic" stdDeviation="2.2" result="blur"/><feMerge><feMergeNode in="blur"/><feMergeNode in="SourceGraphic"/></feMerge></filter>
</defs>
<g id="background">
<rect width="800" height="800" fill="url(#void)"/>
<path d="M 0 525 C 206 441 663 680 687 533" fill="none" stroke="#a78bfa" stroke-opacity="0.10" stroke-width="3.8" stroke-linecap="round"/>
<path d="M 0 356 C 252 215 499 479 740 329" fill="none" stroke="#a78bfa" stroke-opacity="0.08" stroke-width="3.8" stroke-linecap="round"/>
<path d="M 0 415 C 172 289 623 527 741 382" fill="none" stroke="#a78bfa" stroke-opacity="0.06" stroke-width="2.1" stroke-linecap="round"/>
<path d="M 0 608 C 162 490 601 733 716 613" fill="none" stroke="#a78bfa" stroke-opacity="0.10" stroke-width="3.7" stroke-linecap="round"/>
<path d="M 0 498 C 199 326 583 603 681 510" fill="none" stroke="#a78bfa" stroke-opacity="0.09" stroke-width="3.4" stroke-linecap="round"/>
<path d="M 0 214 C 316 103 538 309 683 176" fill="none" stroke="#a78bfa" stroke-opacity="0.09" stroke-width="2.4" stroke-linecap="round"/>
<path d="M 0 351 C 164 231 541 427 750 324" fill="none" stroke="#a78bfa" stroke-opacity="0.10" stroke-width="3.2" stroke-linecap="round"/>
<path d="M 0 60 Q 267 -55.64733609557152 400 85 T 800 45" fill="none" stroke="#a78bfa" stroke-opacity="0.07" stroke-width="2.5" stroke-linecap="round"/>
<path d="M 0 98 Q 267 2.941408457234502 400 123 T 800 83" fill="none" stroke="#a78bfa" stroke-opacity="0.10" stroke-width="2.5" stroke-linecap="round"/>
<path d="M 0 136 Q 267 45.998566592112184 400 161 T 800 121" fill="none" stroke="#a78bfa" stroke-opacity="0.12" stroke-width="2.5" stroke-linecap="round"/>
<path d="M 0 174 Q 267 34.518210688605905 400 199 T 800 159" fill="none" stroke="#a78bfa" stroke-opacity="0.15" stroke-width="2.5" stroke-linecap="round"/>
<path d="M 0 212 Q 267 79.28523124940693 400 237 T 800 197" fill="none" stroke="#a78bfa" stroke-opacity="0.17" stroke-width="2.5" stroke-linecap="round"/>
<path d="M 0 250 Q 267 156.03919877670705 400 275 T 800 235" fill="none" stroke="#a78bfa" stroke-opacity="0.20" stroke-width="2.5" stroke-linecap="round"/>
<rect x="0" y="502" width="800" height="298" fill="url(#floorGlow)"/>
<line x1="48" y1="502" x2="752" y2="502" stroke="rgba(255,255,255,0.06)" stroke-width="1"/>
<circle cx="400" cy="542" r="352" fill="none" stroke="rgba(255,255,255,0.03)" stroke-width="1"/>
</g>
<g id="midground">
<path d="M 183.0 717.4 A 292 292 0 1 1 617.0 717.4" fill="none" stroke="#a78bfa" stroke-opacity="0.22" stroke-width="1.5" stroke-linecap="round"/>
<path d="M 178.3 650.0 A 256 256 0 1 1 621.7 650.0" fill="none" stroke="rgba(255,255,255,0.06)" stroke-width="1" stroke-linecap="round"/>
<line x1="720" y1="494" x2="720" y2="426.0" stroke="#a78bfa" stroke-opacity="0.45" stroke-width="1.5" stroke-linecap="round"/>
<line x1="706" y1="494" x2="706" y2="430.9" stroke="rgba(255,255,255,0.06)" stroke-opacity="0.2" stroke-width="1.5" stroke-linecap="round"/>
<line x1="692" y1="494" x2="692" y2="455.1" stroke="rgba(255,255,255,0.06)" stroke-opacity="0.2" stroke-width="1.5" stroke-linecap="round"/>
<line x1="678" y1="494" x2="678" y2="460.6" stroke="rgba(255,255,255,0.06)" stroke-opacity="0.2" stroke-width="1.5" stroke-linecap="round"/>
<line x1="664" y1="494" x2="664" y2="467.8" stroke="rgba(255,255,255,0.06)" stroke-opacity="0.2" stroke-width="1.5" stroke-linecap="round"/>
<line x1="72" y1="530" x2="103.4" y2="518.2" stroke="#fbbf24" stroke-opacity="0.38" stroke-width="1" stroke-linecap="round"/>
<line x1="82" y1="536" x2="120.3" y2="521.6" stroke="#fbbf24" stroke-opacity="0.38" stroke-width="1" stroke-linecap="round"/>
<line x1="92" y1="542" x2="141.9" y2="523.2" stroke="#fbbf24" stroke-opacity="0.38" stroke-width="1" stroke-linecap="round"/>
<line x1="102" y1="548" x2="152.4" y2="529.0" stroke="#fbbf24" stroke-opacity="0.38" stroke-width="1" stroke-linecap="round"/>
<line x1="112" y1="554" x2="152.4" y2="538.8" stroke="#fbbf24" stroke-opacity="0.38" stroke-width="1" stroke-linecap="round"/>
<line x1="122" y1="560" x2="167.9" y2="542.7" stroke="#fbbf24" stroke-opacity="0.38" stroke-width="1" stroke-linecap="round"/>
</g>
<g id="signal-layers" opacity="0.92">
<line x1="504.9767008796334" y1="280.4300684388727" x2="631.8" y2="207.2" stroke="#a78bfa" stroke-opacity="0.06" stroke-width="1.5" stroke-linecap="round"/><ellipse cx="504.9767008796334" cy="280.4300684388727" rx="122" ry="49" fill="#a78bfa" opacity="0.04" transform="rotate(60 504.9767008796334 280.4300684388727)"/>
<line x1="200" y1="440.1852987706661" x2="122.6" y2="306.1" stroke="#a78bfa" stroke-opacity="0.11" stroke-width="1.5" stroke-linecap="round"/><circle cx="200" cy="440.1852987706661" r="45" fill="#a78bfa" opacity="0.16" transform="rotate(-30 200 440.1852987706661)"/>
<line x1="420" y1="421.9042608514428" x2="533.2" y2="316.3" stroke="#a78bfa" stroke-opacity="0.11" stroke-width="1.5" stroke-linecap="round"/><line x1="420" y1="421.9042608514428" x2="543.2" y2="478.5" stroke="#a78bfa" stroke-opacity="0.32" stroke-width="2.5" stroke-linecap="round"/>
<line x1="198.00980896688998" y1="502" x2="250.8" y2="348.8" stroke="#a78bfa" stroke-opacity="0.17" stroke-width="1.5" stroke-linecap="round"/><line x1="198.00980896688998" y1="502" x2="376.7" y2="528.4" stroke="#a78bfa" stroke-opacity="0.50" stroke-width="2.5" stroke-linecap="round"/>
<line x1="400" y1="422" x2="381.8" y2="249.0" stroke="#a78bfa" stroke-opacity="0.22" stroke-width="1.5" stroke-linecap="round"/><line x1="400" y1="422" x2="601.9" y2="412.9" stroke="#a78bfa" stroke-opacity="0.64" stroke-width="2.5" stroke-linecap="round"/>
<line x1="432.6839951239526" y1="571.5298596769571" x2="476.5" y2="428.1" stroke="#a78bfa" stroke-opacity="0.16" stroke-width="1.5" stroke-linecap="round"/><circle cx="432.6839951239526" cy="571.5298596769571" r="44" fill="#a78bfa" opacity="0.23" transform="rotate(17 432.6839951239526 571.5298596769571)"/>
<line x1="386.39959340915084" y1="225.48123687505722" x2="465.8" y2="154.0" stroke="#a78bfa" stroke-opacity="0.10" stroke-width="1.5" stroke-linecap="round"/><circle cx="386.39959340915084" cy="225.48123687505722" r="31" fill="#a78bfa" opacity="0.14" transform="rotate(48 386.39959340915084 225.48123687505722)"/>
<line x1="247.92105993255973" y1="430.37123531103134" x2="271.4" y2="336.1" stroke="#a78bfa" stroke-opacity="0.09" stroke-width="1.5" stroke-linecap="round"/><circle cx="247.92105993255973" cy="430.37123531103134" r="28" fill="#a78bfa" opacity="0.13" transform="rotate(14 247.92105993255973 430.37123531103134)"/>
<line x1="412.6162099838257" y1="177.40104515105486" x2="467.7" y2="114.0" stroke="#a78bfa" stroke-opacity="0.07" stroke-width="1.5" stroke-linecap="round"/><circle cx="412.6162099838257" cy="177.40104515105486" r="25" fill="#a78bfa" opacity="0.10" transform="rotate(41 412.6162099838257 177.40104515105486)"/>
<line x1="544.1102285217494" y1="205.77513377182186" x2="673.7" y2="207.8" stroke="#a78bfa" stroke-opacity="0.21" stroke-width="1.5" stroke-linecap="round"/><line x1="544.1102285217494" y1="205.77513377182186" x2="541.8" y2="270.6" stroke="#a78bfa" stroke-opacity="0.59" stroke-width="2.5" stroke-linecap="round"/>
<line x1="514.0150835365057" y1="416.93841302767396" x2="629.4" y2="357.9" stroke="#a78bfa" stroke-opacity="0.21" stroke-width="1.5" stroke-linecap="round"/><line x1="514.0150835365057" y1="416.93841302767396" x2="582.9" y2="474.6" stroke="#a78bfa" stroke-opacity="0.59" stroke-width="2.5" stroke-linecap="round"/>
<line x1="310" y1="462" x2="395.1" y2="339.9" stroke="#a78bfa" stroke-opacity="0.27" stroke-width="1.5" stroke-linecap="round"/><line x1="310" y1="462" x2="452.4" y2="504.6" stroke="#a78bfa" stroke-opacity="0.76" stroke-width="2.5" stroke-linecap="round"/>
<line x1="400" y1="382" x2="433.5" y2="256.8" stroke="#a78bfa" stroke-opacity="0.20" stroke-width="1.5" stroke-linecap="round"/><circle cx="400" cy="382" r="38" fill="#a78bfa" opacity="0.28" transform="rotate(15 400 382)"/>
</g>
<g id="foreground" filter="url(#neonBloom)">
</g>
</svg>