<svg xmlns="http://www.w3.org/2000/svg" viewBox="0 0 800 800" width="100%" height="100%" role="img" aria-label="Pythh signal composition">
<defs>
<radialGradient id="bg" cx="50%" cy="45%" r="70%"><stop offset="0%" stop-color="#12121a"/><stop offset="100%" stop-color="#0a0a0c"/></radialGradient>
<filter id="glow"><feGaussianBlur stdDeviation="3" result="b"/><feMerge><feMergeNode in="b"/><feMergeNode in="SourceGraphic"/></feMerge></filter>
</defs>
<rect width="800" height="800" fill="url(#bg)"/>
<line x1="0" y1="0" x2="0" y2="800" stroke="rgba(255,255,255,0.08)" stroke-opacity="0.040" stroke-width="1"/>
<line x1="70" y1="0" x2="70" y2="800" stroke="rgba(255,255,255,0.08)" stroke-opacity="0.045" stroke-width="1"/>
<line x1="140" y1="0" x2="140" y2="800" stroke="rgba(255,255,255,0.08)" stroke-opacity="0.051" stroke-width="1"/>
<line x1="210" y1="0" x2="210" y2="800" stroke="rgba(255,255,255,0.08)" stroke-opacity="0.056" stroke-width="1"/>
<line x1="280" y1="0" x2="280" y2="800" stroke="rgba(255,255,255,0.08)" stroke-opacity="0.061" stroke-width="1"/>
<line x1="350" y1="0" x2="350" y2="800" stroke="rgba(255,255,255,0.08)" stroke-opacity="0.066" stroke-width="1"/>
<line x1="420" y1="0" x2="420" y2="800" stroke="rgba(255,255,255,0.08)" stroke-opacity="0.072" stroke-width="1"/>
<line x1="490" y1="0" x2="490" y2="800" stroke="rgba(255,255,255,0.08)" stroke-opacity="0.077" stroke-width="1"/>
<line x1="560" y1="0" x2="560" y2="800" stroke="rgba(255,255,255,0.08)" stroke-opacity="0.082" stroke-width="1"/>
<line x1="630" y1="0" x2="630" y2="800" stroke="rgba(255,255,255,0.08)" stroke-opacity="0.087" stroke-width="1"/>
<line x1="700" y1="0" x2="700" y2="800" stroke="rgba(255,255,255,0.08)" stroke-opacity="0.092" stroke-width="1"/>
<line x1="770" y1="0" x2="770" y2="800" stroke="rgba(255,255,255,0.08)" stroke-opacity="0.098" stroke-width="1"/>
<line x1="0" y1="0" x2="800" y2="0" stroke="rgba(255,255,255,0.08)" stroke-opacity="0.040" stroke-width="1"/>
<line x1="0" y1="70" x2="800" y2="70" stroke="rgba(255,255,255,0.08)" stroke-opacity="0.045" stroke-width="1"/>
<line x1="0" y1="140" x2="800" y2="140" stroke="rgba(255,255,255,0.08)" stroke-opacity="0.051" stroke-width="1"/>
<line x1="0" y1="210" x2="800" y2="210" stroke="rgba(255,255,255,0.08)" stroke-opacity="0.056" stroke-width="1"/>
<line x1="0" y1="280" x2="800" y2="280" stroke="rgba(255,255,255,0.08)" stroke-opacity="0.061" stroke-width="1"/>
<line x1="0" y1="350" x2="800" y2="350" stroke="rgba(255,255,255,0.08)" stroke-opacity="0.066" stroke-width="1"/>
<line x1="0" y1="420" x2="800" y2="420" stroke="rgba(255,255,255,0.08)" stroke-opacity="0.072" stroke-width="1"/>
<line x1="0" y1="490" x2="800" y2="490" stroke="rgba(255,255,255,0.08)" stroke-opacity="0.077" stroke-width="1"/>
<line x1="0" y1="560" x2="800" y2="560" stroke="rgba(255,255,255,0.08)" stroke-opacity="0.082" stroke-width="1"/>
<line x1="0" y1="630" x2="800" y2="630" stroke="rgba(255,255,255,0.08)" stroke-opacity="0.087" stroke-width="1"/>
<line x1="0" y1="700" x2="800" y2="700" stroke="rgba(255,255,255,0.08)" stroke-opacity="0.092" stroke-width="1"/>
<line x1="0" y1="770" x2="800" y2="770" stroke="rgba(255,255,255,0.08)" stroke-opacity="0.098" stroke-width="1"/>
<circle cx="400" cy="400" r="444.3" fill="none" stroke="#34d399" stroke-opacity="0.60" stroke-width="2" stroke-dasharray="none" transform="rotate(0.9 400 400)"/>
<circle cx="400" cy="400" r="386.5" fill="none" stroke="rgba(255,255,255,0.12)" stroke-opacity="0.54" stroke-width="1" stroke-dasharray="none" transform="rotate(-4.7 400 400)"/>
<circle cx="400" cy="400" r="328.8" fill="none" stroke="rgba(255,255,255,0.12)" stroke-opacity="0.47" stroke-width="1" stroke-dasharray="none" transform="rotate(6.0 400 400)"/>
<circle cx="400" cy="400" r="271.0" fill="none" stroke="rgba(255,255,255,0.12)" stroke-opacity="0.41" stroke-width="1" stroke-dasharray="none" transform="rotate(-1.6 400 400)"/>
<circle cx="400" cy="400" r="213.3" fill="none" stroke="rgba(255,255,255,0.12)" stroke-opacity="0.34" stroke-width="1" stroke-dasharray="none" transform="rotate(-1.4 400 400)"/>
<circle cx="400" cy="400" r="155.5" fill="none" stroke="rgba(255,255,255,0.12)" stroke-opacity="0.28" stroke-width="1" stroke-dasharray="none" transform="rotate(-0.8 400 400)"/>
<circle cx="400" cy="400" r="97.8" fill="none" stroke="rgba(255,255,255,0.12)" stroke-opacity="0.21" stroke-width="1" stroke-dasharray="none" transform="rotate(-2.9 400 400)"/>
<circle cx="585.6" cy="466.9" r="12.9" fill="#34d399"/>
<circle cx="395.3" cy="488.3" r="14.5" fill="rgba(251,191,36,0.3)"/>
<circle cx="265.1" cy="594.4" r="14.6" fill="rgba(100,116,139,0.25)"/>
<circle cx="328.7" cy="343.4" r="9.9" fill="#34d399"/>
<circle cx="424.8" cy="272.0" r="12.3" fill="rgba(251,191,36,0.3)"/>
<circle cx="613.8" cy="351.8" r="6.9" fill="rgba(100,116,139,0.25)"/>
<line x1="585.6" y1="466.9" x2="395.3" y2="488.3" stroke="rgba(52,211,153,0.35)" stroke-width="1"/>
<line x1="585.6" y1="466.9" x2="328.7" y2="343.4" stroke="rgba(52,211,153,0.35)" stroke-width="1"/>
<line x1="585.6" y1="466.9" x2="613.8" y2="351.8" stroke="rgba(52,211,153,0.35)" stroke-width="1"/>
<line x1="395.3" y1="488.3" x2="265.1" y2="594.4" stroke="rgba(52,211,153,0.35)" stroke-width="1"/>
<line x1="395.3" y1="488.3" x2="328.7" y2="343.4" stroke="rgba(52,211,153,0.35)" stroke-width="1"/>
<line x1="395.3" y1="488.3" x2="613.8" y2="351.8" stroke="rgba(52,211,153,0.35)" stroke-width="1"/>
<line x1="265.1" y1="594.4" x2="424.8" y2="272.0" stroke="rgba(52,211,153,0.35)" stroke-width="1"/>
<line x1="265.1" y1="594.4" x2="613.8" y2="351.8" stroke="rgba(52,211,153,0.35)" stroke-width="1"/>
<line x1="424.8" y1="272.0" x2="613.8" y2="351.8" stroke="rgba(52,211,153,0.35)" stroke-width="1"/>
<line x1="157.8" y1="668.4" x2="89.5" y2="628.4" stroke="rgba(251,191,36,0.3)" stroke-width="1" stroke-opacity="0.5"/>
<line x1="752.9" y1="21.6" x2="679.1" y2="33.7" stroke="rgba(251,191,36,0.3)" stroke-width="1" stroke-opacity="0.5"/>
<line x1="173.7" y1="744.8" x2="136.9" y2="789.6" stroke="rgba(251,191,36,0.3)" stroke-width="1" stroke-opacity="0.5"/>
<line x1="121.0" y1="757.6" x2="189.7" y2="775.4" stroke="rgba(251,191,36,0.3)" stroke-width="1" stroke-opacity="0.5"/>
<line x1="118.3" y1="615.4" x2="87.2" y2="525.5" stroke="rgba(251,191,36,0.3)" stroke-width="1" stroke-opacity="0.5"/>
<line x1="253.3" y1="307.3" x2="250.1" y2="315.3" stroke="rgba(251,191,36,0.3)" stroke-width="1" stroke-opacity="0.5"/>
<line x1="776.0" y1="248.0" x2="769.5" y2="322.0" stroke="rgba(251,191,36,0.3)" stroke-width="1" stroke-opacity="0.5"/>
<line x1="605.4" y1="616.8" x2="703.3" y2="624.3" stroke="rgba(251,191,36,0.3)" stroke-width="1" stroke-opacity="0.5"/>
<line x1="463.9" y1="53.7" x2="442.6" y2="86.2" stroke="rgba(251,191,36,0.3)" stroke-width="1" stroke-opacity="0.5"/>
<line x1="570.5" y1="315.4" x2="524.9" y2="217.2" stroke="rgba(251,191,36,0.3)" stroke-width="1" stroke-opacity="0.5"/>
<line x1="414.5" y1="448.5" x2="347.2" y2="437.6" stroke="rgba(251,191,36,0.3)" stroke-width="1" stroke-opacity="0.5"/>
<line x1="459.3" y1="638.9" x2="509.5" y2="600.8" stroke="rgba(251,191,36,0.3)" stroke-width="1" stroke-opacity="0.5"/>
<line x1="107.0" y1="183.2" x2="27.0" y2="108.0" stroke="rgba(251,191,36,0.3)" stroke-width="1" stroke-opacity="0.5"/>
<line x1="309.7" y1="609.9" x2="222.8" y2="695.7" stroke="rgba(251,191,36,0.3)" stroke-width="1" stroke-opacity="0.5"/>
<line x1="736.4" y1="30.3" x2="694.8" y2="26.2" stroke="rgba(251,191,36,0.3)" stroke-width="1" stroke-opacity="0.5"/>
<line x1="184.5" y1="125.5" x2="136.3" y2="110.0" stroke="rgba(251,191,36,0.3)" stroke-width="1" stroke-opacity="0.5"/>
<line x1="480.2" y1="52.6" x2="571.5" y2="-41.2" stroke="rgba(251,191,36,0.3)" stroke-width="1" stroke-opacity="0.5"/>
<line x1="156.0" y1="761.6" x2="244.5" y2="697.2" stroke="rgba(251,191,36,0.3)" stroke-width="1" stroke-opacity="0.5"/>
<line x1="427.6" y1="203.0" x2="393.5" y2="235.8" stroke="rgba(251,191,36,0.3)" stroke-width="1" stroke-opacity="0.5"/>
<line x1="410.9" y1="401.6" x2="471.6" y2="323.7" stroke="rgba(251,191,36,0.3)" stroke-width="1" stroke-opacity="0.5"/>
<line x1="293.7" y1="197.0" x2="270.7" y2="188.7" stroke="rgba(251,191,36,0.3)" stroke-width="1" stroke-opacity="0.5"/>
<line x1="759.9" y1="148.4" x2="803.4" y2="143.0" stroke="rgba(251,191,36,0.3)" stroke-width="1" stroke-opacity="0.5"/>
<line x1="75.5" y1="342.7" x2="131.2" y2="250.1" stroke="rgba(251,191,36,0.3)" stroke-width="1" stroke-opacity="0.5"/>
<line x1="235.4" y1="615.2" x2="237.7" y2="575.9" stroke="rgba(251,191,36,0.3)" stroke-width="1" stroke-opacity="0.5"/>
<polygon points="418.2,302.7 483.3,346.5 495.6,425.8 438.7,491.1 349.3,485.0 301.0,403.1 333.5,326.7" fill="none" stroke="#34d399" stroke-width="2" filter="url(#glow)" opacity="0.9"/>
<path d="M 629.0586850116961 400 A 229.05868501169607 229.05868501169607 0 0 1 183.8571596597217 324.170231775876" fill="none" stroke="#34d399" stroke-opacity="0.35" stroke-width="1.5"/>
<path d="M 652.5714418594725 400 A 252.57144185947254 252.57144185947254 0 0 1 365.6408898201112 650.2234697038214" fill="none" stroke="#34d399" stroke-opacity="0.35" stroke-width="1.5"/>
<path d="M 714.1929740575142 400 A 314.1929740575142 314.1929740575142 0 0 1 145.64589492044104 584.4484051876906" fill="none" stroke="#34d399" stroke-opacity="0.35" stroke-width="1.5"/>
</svg>